<?xml version="1.0" encoding="UTF-8"?> <svg xmlns="http://www.w3.org/2000/svg" xmlns:xlink="http://www.w3.org/1999/xlink" version="1.1" id="Layer_1" x="0px" y="0px" width="1024px" height="1024px" viewBox="0 0 1024 1024" xml:space="preserve"> <path fill="#FFFFFF" d="M559.061,4.55c-21.826,4.888-31.829,8.412-40.923,14.437l-6.252,4.092v6.025 c0,3.411-0.796,7.958-1.705,10.231c-2.387,5.57-2.161,9.094,1.023,15.915c2.159,4.433,2.387,6.024,1.25,6.365 c-1.705,0.682-5.115,10.23-5.115,14.551c0,1.705,0.568,3.296,1.25,3.524c0.911,0.341,0.796,1.591-0.568,3.979 c-2.614,5.115-2.273,6.138,2.729,9.89c8.866,6.593,13.413,16.597,7.502,16.597c-1.591,0-3.183-0.569-3.523-1.137 c-0.455-0.682-3.069-2.387-5.911-3.865l-5.229-2.615l-6.82,7.276c-7.161,7.502-22.281,20.688-26.6,22.962 c-1.365,0.682-4.661,1.25-7.389,1.137c-2.728-0.114-6.934,0.682-9.548,1.591c-2.501,0.91-6.026,1.478-7.617,1.137 c-6.139-1.25-13.187,0.796-20.802,6.025c-4.093,2.842-10.004,6.139-13.187,7.389c-3.183,1.251-7.274,3.297-8.979,4.547 c-4.547,3.183-10.573,15.915-10.573,22.394l-0.113,5.229l11.254,2.046c10.344,1.818,14.55,3.411,13.073,4.888 c-0.342,0.228-5.57,1.478-11.595,2.728c-7.957,1.591-14.209,3.865-22.507,7.957c-6.707,3.41-13.187,5.797-15.233,5.797 s-7.957-2.046-13.186-4.433c-11.708-5.457-18.643-6.934-31.715-6.934c-7.275,0-10.913-0.568-13.3-1.933 c-4.433-2.5-9.435-1.25-9.435,2.273c0,4.32-1.364,5.115-7.617,4.547c-5.342-0.568-6.024-0.909-6.024-3.183 c0-1.364,0.796-4.092,1.819-6.138c1.705-3.524,1.705-3.752-2.273-11.027c-2.273-3.979-4.092-8.184-4.092-9.208 c0-1.137,1.591-3.637,3.524-5.57c2.842-2.842,3.41-4.319,2.842-6.593c-1.023-4.092-6.366-4.774-14.778-1.819 c-3.751,1.25-8.298,2.273-10.23,2.273c-4.32,0-17.279-3.979-21.03-6.479c-2.615-1.706-2.728-1.706-1.819,0.91 c0.455,1.478,1.591,9.321,2.614,17.505l1.705,14.778l8.298,8.867c9.094,9.662,10.458,12.504,8.526,17.961 c-0.682,2.046-0.91,6.252-0.568,9.662c0.682,5.001,1.137,6.139,2.842,6.139c2.842,0,2.728,2.614-0.228,18.756 c-2.956,15.346-2.387,17.165,6.593,23.304c6.707,4.433,7.73,7.502,2.955,8.639c-9.435,2.046-11.822,2.956-12.845,5.001 c-1.137,2.046-1.478,2.16-3.751,0.682c-1.365-0.91-6.025-2.273-10.458-2.956c-10.231-1.819-12.845-3.41-13.3-8.525l-0.341-4.093 l-3.979,3.411l-3.979,3.296l2.046,5.797c2.16,6.138,1.819,9.436-1.25,12.846c-1.592,1.932-5.911,2.842-5.911,1.364 c0-0.455,0.568-2.728,1.25-5.115c1.137-3.751,1.023-4.774-1.137-8.298c-1.479-2.273-3.07-4.092-3.524-4.092 c-0.568,0-2.273,1.25-3.865,2.842c-3.524,3.524-5.57,3.638-8.298,0.228c-1.137-1.364-2.842-2.501-3.751-2.501 c-1.137,0-1.705-1.023-1.705-3.069c0.114-2.614-0.228-2.842-2.046-1.932c-1.137,0.682-3.184,1.023-4.547,0.795 c-1.592-0.227-3.41,0.796-5.115,2.729c-1.478,1.705-5.457,4.66-8.867,6.593c-3.296,1.933-6.138,4.093-6.138,4.661 s-0.909,1.023-2.046,1.023c-1.478,0-3.865-3.296-8.185-11.14c-12.959-23.645-13.869-24.781-19.779-24.213 c-3.184,0.341-3.297,0.228-2.615-3.865c0.683-3.979,0.568-4.093-1.364-2.387c-2.615,2.387-4.661,2.273-6.366-0.114 c-1.25-1.705-1.933-1.591-7.275,1.819c-4.092,2.615-6.594,3.524-8.526,3.069c-2.273-0.568-2.728-0.114-3.979,3.865 c-2.387,7.957-11.595,12.05-15.232,6.82c-0.91-1.25-3.069-2.614-5.002-2.956c-2.955-0.568-3.637-0.227-5.797,3.41 c-2.615,4.32-4.092,4.889-8.64,2.842c-1.819-0.909-2.956-2.614-3.524-5.229c-0.568-3.183-1.137-3.751-2.614-3.069 c-6.139,2.614-16.142,5.911-19.78,6.593c-3.523,0.682-4.319,0.455-4.319-1.137c0-1.25-0.568-1.591-1.819-1.137 c-1.023,0.341-3.865,1.023-6.479,1.364c-2.615,0.455-6.025,1.705-7.616,2.729c-3.524,2.387-9.776,4.547-13.073,4.547 c-2.16,0-2.614,0.796-3.296,5.229c-0.341,2.956-0.682,7.502-0.682,10.231c0,4.888,0.114,5.001,3.751,5.001 c1.933,0,9.436-1.25,16.483-2.614c11.936-2.387,12.732-2.501,12.732-0.568c0,1.023-1.137,2.614-2.501,3.296 c-2.387,1.25-2.274,1.364,1.364,2.842c2.842,1.25,3.524,2.16,3.069,3.865c-0.455,1.705,0,2.273,1.818,2.273 c3.524,0,5.002,1.25,6.479,5.001c0.909,2.388,0.796,3.638-0.114,4.775c-1.819,2.273-3.524,1.932-8.298-1.25 c-4.092-2.729-15.232-6.252-19.893-6.252c-1.933,0-2.387,0.682-2.387,3.411c0,3.41,0,3.41,2.842,1.591 c2.728-1.706,3.183-1.706,7.729,0c7.276,2.842,9.663,5.229,10.572,10.572c0.909,6.139-0.341,6.707-15.801,8.185 c-6.707,0.682-13.414,1.478-15.119,1.933c-4.319,1.137-1.137,2.728,5.457,2.728c5.116,0,5.57,0.341,8.298,4.547 c1.591,2.501,4.206,7.843,5.911,12.05c2.955,7.047,2.955,7.616,1.137,8.98c-1.819,1.25-1.819,1.478-0.114,2.16 c0.909,0.341,4.319,0.682,7.503,0.682h5.684l-0.682-3.865c-0.568-2.842-0.341-3.979,1.023-4.547 c0.909-0.341,1.705-2.046,1.705-3.865c0-3.866,1.819-5.912,5.343-5.912c1.818,0,2.614,0.682,2.614,2.16 c0,1.251-0.455,2.615-1.137,2.956c-2.16,1.364-1.137,3.865,2.046,5.57c2.956,1.591,3.411,1.478,5.116-0.568 c2.729-3.183,3.638-2.728,7.389,3.296c2.729,4.434,4.32,5.797,8.299,6.934c7.957,2.387,18.415,7.503,21.825,10.686l3.069,2.956 v-3.865v-3.865l4.888,2.046c3.638,1.591,4.774,2.728,4.888,4.774c0.114,5.342,0.341,5.684,3.637,5.342 c2.501-0.227,3.184-0.909,3.411-4.092c0.455-4.547,3.183-4.888,7.502-0.796c4.206,3.865,3.865,6.82-1.364,9.549 c-3.297,1.705-3.297,4.661,0.113,4.661c1.478,0,3.183,0.568,3.865,1.25c2.046,2.046,6.593,0.795,6.934-2.046 c0.228-1.364,1.023-3.069,1.933-3.751c1.25-1.023,1.933-0.683,3.183,1.819c1.592,2.956,2.16,3.183,9.435,3.183 c7.503,0.114,7.844,0.228,8.98,3.41c0.909,2.728,0.682,3.524-1.819,5.684l-2.956,2.501l8.639,0.114 c5.797,0,10.004,0.682,12.391,1.933c3.865,1.933,4.774,4.888,1.933,5.911c-1.25,0.568-1.364,1.137-0.341,2.728 c1.25,2.046,0.909,2.956-4.092,9.663c-0.568,0.682-0.683,3.638-0.228,6.365l0.796,5.002l7.275,1.818l7.389,1.819l3.296-3.638 c4.889-5.57,7.503-6.593,14.778-5.797c6.935,0.795,8.753,1.818,15.232,7.957c4.547,4.319,11.254,6.706,22.053,8.071 c5.456,0.681,5.911,1.023,4.888,2.955c-2.273,4.206-5.343,4.774-13.868,2.729c-5.57-1.478-10.458-3.751-16.369-7.729 c-6.024-3.979-9.89-5.798-13.527-6.252c-6.252-0.683-8.298,0.796-8.298,5.912c0,2.159-0.341,4.773-0.682,6.024 c-0.568,1.705,0.114,2.501,3.41,3.638c4.206,1.478,15.232,11.253,15.232,13.414c0,0.682-1.25,1.591-2.728,1.933 c-3.297,0.795-14.323,15.231-14.323,18.642c0,1.251,1.933,4.774,4.206,7.844c2.273,2.955,6.138,7.958,8.525,11.14 c2.387,3.069,5.229,8.98,6.479,13.072c1.705,5.684,3.41,8.525,7.162,12.049c5.57,5.458,12.049,8.981,18.301,9.891 c2.273,0.341,5.684,1.705,7.389,2.956c4.661,3.296,9.322,4.205,9.322,1.932c0-3.296,3.41-1.932,5.343,2.273 c1.591,3.184,2.387,3.865,4.319,3.297c4.547-1.478,6.593-1.137,8.753,1.818c3.069,4.093,1.932,7.162-4.32,10.799 c-4.547,2.729-4.888,3.184-3.524,4.89c2.956,3.296,11.027,20.46,11.027,23.416c0,2.047-0.568,2.842-2.273,2.842 c-1.933,0-2.046,0.342-1.137,2.955c2.046,5.115,1.364,8.072-1.819,8.867c-3.41,0.91-3.069,3.184,1.478,10.23 c3.865,5.91,1.705,7.389-5.115,3.41c-5.571-3.297-6.48-3.068-5.457,1.137c0.455,1.932,2.387,3.753,5.798,5.458 c6.138,3.181,25.577,23.984,28.987,31.145c1.591,3.184,2.842,8.867,3.41,16.03c1.478,15.686,2.728,19.324,9.776,28.076 c3.41,4.205,6.138,8.413,6.138,9.208c0,2.16-1.478,2.842-3.41,1.705c-1.25-0.795-2.046,0.113-3.41,3.752 c-1.023,2.613-2.273,4.773-2.842,4.773s-1.478-2.16-1.933-4.887c-0.455-2.842-2.273-6.594-4.433-9.21 c-4.092-4.887-7.389-14.662-8.866-26.939c-0.796-7.162-1.705-9.094-7.162-17.052c-11.367-16.596-12.845-18.529-14.209-18.643 c-2.728,0-5.002,5.457-6.025,14.322c-1.478,13.415-3.296,23.419-6.934,38.536c-1.819,7.502-3.865,18.757-4.433,25.009 c-0.682,6.252-1.591,14.209-2.16,17.619s-0.91,6.365-0.682,6.595c0.228,0.227,1.137-2.387,2.16-5.913 c1.819-6.023,4.092-8.639,7.843-8.639c2.273,0,13.3,11.48,13.3,13.983c0,5.91-4.774,8.07-11.936,5.342 c-1.933-0.795-3.751-0.795-5.115,0c-3.296,1.705-6.479,11.822-8.98,28.531c-1.251,8.413-5.343,28.761-9.094,45.357 c-3.638,16.596-7.048,32.396-7.502,35.125c-2.046,14.665-18.643,35.353-28.419,35.353c-2.046,0-2.046-0.113-0.455,4.435 c1.023,3.067,1.819,3.523,5.115,3.523c2.729,0,4.888,0.91,6.707,2.842l2.842,2.729v-2.729c0-4.092,4.547-3.75,11.481,0.797 c4.888,3.068,5.57,4.092,5.57,7.389c0,2.045-1.591,7.16-3.41,11.367c-1.933,4.092-3.411,7.957-3.411,8.41 c0,0.568,1.478,1.023,3.297,1.023c2.501,0,3.524-0.682,4.661-3.41c2.956-7.16,9.094-7.16,9.094,0c0,5.229,3.296,9.663,8.867,12.05 c9.094,3.979,21.598,7.275,27.623,7.275h6.252l2.5,5.115c1.364,2.842,3.751,7.162,5.343,9.662l2.842,4.547h17.506h17.393 l5.342,6.708c5.229,6.479,5.57,6.707,8.98,5.684c2.046-0.568,8.64-1.363,14.664-1.818l11.14-0.682l1.25,3.75l1.364,3.752l1.592-3.07 c1.818-3.41,3.296-3.637,6.934-1.25c1.706,1.25,4.547,1.705,9.549,1.479l7.161-0.342l-0.341-4.66 c-0.228-2.616,0.454-6.595,1.365-8.868c1.931-4.773,4.319-5.229,10.685-1.932c2.273,1.137,8.525,3.068,13.869,4.092 c7.275,1.479,10.571,2.729,13.413,5.345c3.751,3.182,4.093,3.182,12.164,2.5c10.118-0.911,14.209,0.91,14.209,6.252 c0,1.818,0.909,4.434,2.046,5.797c1.819,2.273,2.388,2.387,4.661,1.25c2.046-1.137,4.773-1.137,12.845,0 c10.912,1.592,12.276,2.615,12.276,9.322c0,1.818,1.024,2.955,3.297,3.75c2.046,0.797,4.433,3.297,6.365,6.82 c8.298,14.552,9.775,15.12,22.849,9.437l8.071-3.523l11.253,4.547c11.141,4.547,11.254,4.547,16.938,2.842 c3.07-0.91,11.027-4.434,17.507-7.844c6.593-3.41,12.73-6.14,13.641-6.14c0.909,0,5.115,1.818,9.32,3.979 c4.321,2.161,8.072,3.979,8.413,3.979c0.455,0-0.341-1.477-1.592-3.298c-1.363-1.818-2.387-3.979-2.387-4.887 c0-0.91-1.818-3.297-3.979-5.457l-3.979-3.865v-13.072c0-9.434,0.568-15.347,2.046-20.575c1.82-6.139,1.934-7.957,0.684-10.799 c-1.137-2.842-1.024-3.979,0.682-7.502c1.364-2.615,1.705-4.547,1.023-5.684c-2.502-4.092-0.228-9.437,2.955-6.708 c1.25,1.024,1.933,0.568,3.41-2.387c2.842-5.342,11.708-14.436,17.278-17.732c4.774-2.842,8.185-3.07,13.073-1.023 c1.364,0.682,3.295-0.455,6.82-4.205c6.252-6.48,28.986-24.896,35.58-28.647c3.523-2.16,6.252-2.842,9.321-2.613 c4.092,0.34,4.319,0.568,5.343,5.342c1.363,6.365,4.092,7.502,20.006,8.639c13.642,0.911,17.961,2.616,18.87,7.39 c0.796,3.865,2.729,4.547,13.3,4.547h7.617v-3.41c0-6.14,6.82-10.345,10.23-6.253c0.796,0.911,2.387,1.705,3.638,1.705 c2.159,0,2.159-0.112,0.454-2.842c-1.932-2.955-2.387-9.32-0.795-11.822c0.909-1.363,2.273-1.021,8.298,1.934 c3.979,2.045,8.298,3.637,9.548,3.637c5.684,0,6.594,7.845,1.364,11.71c-1.705,1.25-5.797,2.5-9.435,2.955 c-6.139,0.682-6.252,0.795-4.66,2.955c1.591,2.273,1.705,2.273,9.889,0.113c10.799-2.727,13.188-2.613,16.711,0.797 c2.273,2.273,2.842,4.092,2.842,8.07v5.229h4.661c2.614,0,5.91,0.797,7.389,1.818c2.5,1.82,2.728,1.82,3.751,0 c1.591-2.842,3.979-2.158,9.207,2.615c2.614,2.387,5.912,4.66,7.276,5.115s3.638,2.616,4.888,4.66 c2.614,4.208,4.547,4.208,7.957,0.113c1.818-2.273,7.616-2.273,11.367-0.113c3.979,2.273,5.456,2.048,5.911-0.794 c0.341-2.503,0.909-2.616,8.64-2.503c7.389,0,8.298-0.227,8.866-2.387c0.455-1.932,2.615-2.842,11.936-5.115 c6.139-1.477,11.709-2.955,12.278-3.297c0.568-0.453,1.362-2.387,1.817-4.318c0.682-3.184,0.456-3.752-1.478-3.752 c-1.251,0-2.956-0.795-3.751-1.818c-1.251-1.592-1.251-2.047,0.454-3.184c1.023-0.795,2.842-3.75,4.094-6.705 c2.387-5.684,4.205-7.05,10.685-8.187c6.024-1.137,9.435-4.318,11.595-10.799c1.933-5.797,3.069-6.592,12.617-8.525 c2.842-0.568,4.206-1.932,6.595-6.252c3.637-6.708,7.843-10.231,12.162-10.231c2.956,0,3.297-0.339,3.297-3.75 c0-7.275,3.069-8.754,12.049-5.912c2.388,0.797,2.501,0.455,2.273-9.094c-0.113-9.662,0-9.889,3.41-13.072 c1.933-1.705,4.206-3.298,4.89-3.523c1.818-0.682,3.637-16.142,1.932-17.165c-2.047-1.365-7.844-1.023-16.824,0.908 c-4.66,0.91-10.23,1.479-12.845,1.023c-6.593-0.908-21.826-8.865-28.646-14.777c-7.957-7.047-10.23-12.275-10.912-25.804 l-0.568-11.027l6.593-10.457c6.479-10.005,6.707-10.573,5.229-13.983c-1.818-4.432-7.843-8.639-12.39-8.639 c-2.729,0-4.774-1.25-8.981-5.797c-6.82-7.275-14.55-18.757-14.55-21.712c0-3.41,6.139-8.867,9.89-8.867 c1.705,0,10.117-2.613,18.643-5.91l15.46-6.025l0.796-7.957c0.909-8.981,1.478-8.185-10.572-15.687 c-5.797-3.639-7.047-5.002-8.07-8.754c-0.568-2.5-1.705-6.592-2.387-9.207c-0.796-3.41-2.16-5.115-4.774-6.479 c-1.933-1.137-5.003-3.41-6.821-5.116c-2.729-2.615-3.183-3.752-2.614-6.707c1.137-5.684,3.296-8.186,10.8-12.164 c8.07-4.318,8.639-6.137,3.864-13.525c-2.273-3.526-4.319-5.115-7.274-5.913c-2.16-0.567-5.23-2.386-6.821-4.091 c-2.501-2.729-2.729-3.752-2.729-15.006c0-7.844-0.568-13.072-1.478-14.777c-1.023-1.705-1.251-4.206-0.796-7.161l0.796-4.434 h-6.366c-7.389,0-27.396,6.024-28.419,8.525c-0.795,2.16,1.364,8.525,3.865,11.367c2.615,2.955,1.479,5.797-3.865,10.571 c-6.138,5.344-12.39,8.186-18.073,8.186c-3.069,0-5.57,0.682-6.479,1.705c-3.183,3.865-6.139,0.568-5.911-6.707 c0.114-2.5,1.819-5.116,6.935-10.231c3.864-3.864,6.934-7.502,6.934-8.07s-1.137-3.751-2.501-7.048 c-2.387-5.797-2.387-6.024-0.454-11.14c1.705-4.435,1.818-5.797,0.568-8.754c-1.364-3.41-1.251-3.638,3.068-7.502 c10.23-9.208,14.892-13.641,18.415-17.733c3.411-3.979,3.639-4.661,3.639-13.299c0-5.002,0.455-10.004,1.137-11.141 c1.023-2.046,4.774-3.864,10.571-5.115c1.705-0.454,3.069-1.478,3.069-2.5c0-0.91,2.729-4.661,6.024-8.185 c7.503-7.958,15.005-18.075,16.143-21.826c0.455-1.592,1.933-3.979,3.183-5.456c2.273-2.501,2.273-2.501,0.114-2.501 c-5.458,0-6.367-5.002-2.616-13.641c2.161-5.001,2.729-5.57,7.049-6.252c2.614-0.455,6.707-1.819,8.98-2.956 c2.387-1.25,4.433-2.16,4.774-2.16c1.705,0,4.092,3.979,4.092,6.82c0,6.252,6.139,5.001,14.551-3.069 c8.185-7.844,8.64-9.435,4.774-19.211l-3.298-8.071l3.185-15.346c3.068-14.891,3.068-15.346,1.25-20.916 c-3.183-9.094-0.568-21.939,6.365-32.17c2.273-3.41,2.729-5.457,2.729-12.391c0-5.002,0.568-9.208,1.592-10.799 c0.795-1.364,1.818-5.116,2.159-8.413c0.796-6.479,2.614-10.912,8.071-18.301c6.934-9.549,8.752-11.481,12.618-12.845 c3.41-1.25,3.751-1.819,3.183-4.661c-0.454-2.387,0-3.979,1.933-6.024l2.501-2.614l-2.729-1.705 c-18.074-11.254-22.849-13.187-38.649-15.005c-9.891-1.137-14.323-2.16-16.711-3.865c-4.205-3.069-5.115-2.956-11.253,0.568 c-4.547,2.728-5.456,2.842-9.321,1.705c-3.297-0.91-5.115-0.91-7.275,0c-3.297,1.478-5.798,0.227-6.935-3.638 c-1.023-3.183-9.207-3.069-10.003,0.114c-0.796,3.296-6.024,2.956-11.254-0.796c-4.092-2.728-12.505-14.323-20.462-27.851 c-2.955-5.229-2.955-5.229-10.23-5.684c-6.024-0.455-8.411,0-14.891,2.842l-7.845,3.297l-9.321-5.798l-9.435-5.797l-9.548,2.842 c-14.893,4.319-16.257,4.092-18.644-3.979c-1.023-3.41-1.592-3.979-4.319-3.638c-3.297,0.456-3.638,0-4.774-6.82 c-0.568-3.751-1.25-4.547-7.161-7.275c-25.805-12.05-29.328-14.55-28.191-19.325c0.568-2.273,0-3.865-2.729-6.82 c-3.979-4.661-4.092-5.911-1.137-15.46c2.729-8.867,2.729-8.753,0-8.071c-1.592,0.455-2.501,1.932-2.955,4.888 c-1.137,6.82-4.093,10.571-13.527,16.937c-9.663,6.48-12.96,7.048-22.963,4.093c-11.14-3.296-15.118-9.776-8.525-13.869 c1.705-1.023,3.297-2.046,3.41-2.16c0.228-0.114-0.682-1.819-2.159-3.751c-2.16-2.956-2.501-4.661-2.388-12.391 c0.228-7.957,0-9.208-2.387-11.481c-3.297-3.069-8.754-4.661-15.802-4.661c-4.433,0-6.024,0.568-8.866,3.41 c-3.979,3.979-3.638,3.751-7.275,2.16c-3.296-1.478-4.66-5.229-5.797-15.118c-1.137-9.549-3.866-12.05-13.414-12.05 c-8.64,0-12.391-2.273-14.437-8.866c-0.796-2.274-3.41-8.071-5.911-12.732l-4.547-8.525l-5.001,0.454 c-4.547,0.342-5.003,0.568-5.003,3.411c0,1.705-0.682,4.092-1.592,5.229c-1.363,1.933-2.046,1.705-11.367-5.001 c-11.48-8.299-13.754-11.936-15.572-24.782c-1.364-10.117-2.047-12.845-3.069-12.731C578.727,0.117,569.746,2.049,559.061,4.55z M530.187,1012.392c1.705,4.66-0.341,8.297-4.66,8.297c-3.183,0-3.41-0.227-3.41-4.318 C522.116,1009.207,527.913,1006.365,530.187,1012.392z"></path> <path display="none" fill="#FFFFFF" d="M1004.9,834.2c0,0.2-0.301,2.8-0.601,5.8s-0.899,6.2-1.399,7.2c-1.4,2.5-1.101,5.399,0.6,6.8 c1.8,1.5,1.3,5.5-1.1,10.2c-1.7,3.2-4,3.5-8.2,1.1c-2.5-1.399-3.4-1.5-7.5-0.3c-4.2,1.1-4.7,1.6-4.7,4.1c0,3.601-4,6.301-11.8,8.101 c-4.601,1-5.5,1.6-6.7,4.5c-1.2,2.8-1.8,3.3-3.8,2.8c-1.5-0.4-2.8,0-4,1.3c-1.9,2.101-2.101,3.5-1.101,9.5 c0.601,3.7,0.601,3.8-2.1,3.101c-2.7-0.7-2.8-0.601-2.2,2.699c0.4,1.9,2,4.601,3.7,6.101c1.6,1.5,3,3,3,3.2c0,0.3-2,1.899-4.4,3.5 c-4.3,3-4.399,3.199-3.399,6.699c0.5,2,0.7,4.2,0.399,5c-0.3,0.9,0.101,1.4,1.301,1.4c2.399,0,7.399,2.5,9.399,4.7 c0.8,1,1.8,3,2.2,4.5c0.5,2.1,0.2,3-1.4,4c-1.199,0.7-2.1,2.1-2.1,3.1s-0.5,2.8-1.1,3.9c-1.101,2-1,2.1,2.199,1.3 c5.601-1.3,10.101-1.1,11.101,0.5c0.8,1.3-0.5,4.8-7,18.1c-0.101,0.301,1,0.4,2.5,0.2c3.3-0.5,13.3,4.101,13.3,6.2 c0,0.7-2.1,3.1-4.6,5.3c-2.9,2.4-4.5,4.5-4.101,5.4c0.3,0.8,5.8,3.5,12.3,6c7.2,2.8,12.301,5.399,12.801,6.5 c0.5,1,1.199,2.5,1.6,3.3s1.5,1.6,2.4,1.8c1.199,0.3,1.6-0.399,1.6-2.5c0-4.8,2.1-10.7,4.3-12.5c1.8-1.5,1.9-1.8,0.5-1.8 c-2.5,0-3-1.6-2.3-6.1c0.7-3.801,0.9-4.101,3.5-3.7c2.6,0.399,2.9,0.1,4-4.101c0.7-2.5,1.5-10.5,1.9-17.6l0.699-13l4.7-8.8 c2.601-4.9,4.7-9.7,4.7-10.7s-1.1-6-2.4-11.2c-1.399-5.1-2.899-14.6-3.5-21.1c-0.899-11.101-1.1-12.101-4.5-17l-3.5-5.2l-0.699-16.3 c-0.601-14.9-0.801-16.2-2.5-16.2C1005.8,834,1005,834.1,1004.9,834.2z"></path> </svg> 