<?xml version="1.0" encoding="UTF-8"?> <svg xmlns="http://www.w3.org/2000/svg" xmlns:xlink="http://www.w3.org/1999/xlink" version="1.1" id="Layer_1" x="0px" y="0px" viewBox="0 0 1363 426.5" style="enable-background:new 0 0 1363 426.5;" xml:space="preserve"> <style type="text/css"> .st0{fill:url(#Left_Side_1_);} .st1{fill:url(#Center_Slice_1_);} .st2{fill:url(#Right_Slice_1_);} .st3{fill:#FFFFFF;} </style> <g id="Leaf_1_"> <linearGradient id="Left_Side_1_" gradientUnits="userSpaceOnUse" x1="81.9834" y1="335.5221" x2="15.7074" y2="88.1769" gradientTransform="matrix(1 0 0 -1 0 428)"> <stop offset="0" style="stop-color:#EEF2F8"></stop> <stop offset="9.240000e-02" style="stop-color:#C7E4F5"></stop> <stop offset="0.206" style="stop-color:#9CD6F3"></stop> <stop offset="0.3178" style="stop-color:#77CCF1"></stop> <stop offset="0.4258" style="stop-color:#58C5EF"></stop> <stop offset="0.5283" style="stop-color:#3FC1EF"></stop> <stop offset="0.6196" style="stop-color:#34C0EE"></stop> <stop offset="0.7049" style="stop-color:#44C2EE"></stop> <stop offset="0.8273" style="stop-color:#63C9EF"></stop> <stop offset="0.9716" style="stop-color:#8AD5F0"></stop> <stop offset="1" style="stop-color:#92D8F0"></stop> </linearGradient> <path id="Left_Side_2_" class="st0" d="M79.8,357l0.1,0.1c37.4-139.6,26.6-234.6-60.6-281.3C3.2,118.1-0.2,154.6,0,176.2 c0.7,55.1,23.1,106.1,56.5,152C62.3,335.4,70.6,345.5,79.8,357z"></path> <linearGradient id="Center_Slice_1_" gradientUnits="userSpaceOnUse" x1="58.9444" y1="17.5877" x2="94.5584" y2="424.6567" gradientTransform="matrix(1 0 0 -1 0 428)"> <stop offset="3.680000e-02" style="stop-color:#ACDBE1"></stop> <stop offset="6.470000e-02" style="stop-color:#A2D4D7"></stop> <stop offset="0.1935" style="stop-color:#74BCAF"></stop> <stop offset="0.306" style="stop-color:#4EAD95"></stop> <stop offset="0.3966" style="stop-color:#2CA587"></stop> <stop offset="0.454" style="stop-color:#18A282"></stop> <stop offset="0.5447" style="stop-color:#3DA878"></stop> <stop offset="0.7255" style="stop-color:#71B958"></stop> <stop offset="0.8098" style="stop-color:#85C446"></stop> </linearGradient> <path id="Center_Slice_2_" class="st1" d="M127.3,416.4c-13.4-17.1-31.8-40-47.5-59.4l0.1,0.1c37.4-139.6,26.6-234.6-60.6-281.3 c2-5.2,14.8-38.2,37-75.7c17.3,10,44.2,27.2,44.2,27.2c18.3,12.1,33.8,23.7,46.8,34.9l0,0C113.8,207.3,95.9,338.3,127.3,416.4z"></path> <linearGradient id="Right_Slice_1_" gradientUnits="userSpaceOnUse" x1="223.7086" y1="52.5773" x2="68.9742" y2="320.5849" gradientTransform="matrix(1 0 0 -1 0 428)"> <stop offset="0" style="stop-color:#FFFFFF"></stop> <stop offset="0.1428" style="stop-color:#E1EFD2"></stop> <stop offset="0.3102" style="stop-color:#C6E1A8"></stop> <stop offset="0.473" style="stop-color:#B0D687"></stop> <stop offset="0.6272" style="stop-color:#9ECE6C"></stop> <stop offset="0.7705" style="stop-color:#92C958"></stop> <stop offset="0.899" style="stop-color:#8AC64D"></stop> <stop offset="1" style="stop-color:#87C549"></stop> </linearGradient> <path id="Right_Slice_2_" class="st2" d="M147.4,62.1L147.4,62.1c-33.6,145.1-51.5,276.2-20.1,354.3h0l0-0.1 c2.9,3.7,5.6,7.1,7.9,10.2c9.5-47.7,44-121.5,53-143.1c4.7-11.3,19.1-42.6,24.5-83.1c4.6-34.8-10.5-67.4-13-73 C190.3,106,173.8,84.8,147.4,62.1z"></path> </g> <g> <g id="vine__x28_normal_weight_-_custom_x29_"> <path class="st3" d="M875.6,138l27-1.6l35.1,103.9c4.7,13.6,8,28.3,8,28.3h0.7c0,0,2.7-13,8-27.9l34.1-97.4l30.2-8.3l-61,163H932 L875.6,138z"></path> <polygon class="st3" points="1034,138.9 1061,131.4 1061,297.9 1034,297.9 "></polygon> <path class="st3" d="M1085.5,135.2l25.3-7c0,0,6,12.3,6,25.9c17.3-17.3,34.6-25.6,52.2-25.6c18,0,33.9,9.6,40.6,24.3 c2.7,6,4,12.6,4,19.3v125.8h-26.3V185.8c0-17.6-1.3-22-6-27.6c-3.7-4.3-10.6-7-18.3-7c-13.3,0-33.9,10.6-45.9,23.3v123.4h-25.3 V170.2C1091.8,146.6,1085.5,135.2,1085.5,135.2z"></path> <path class="st3" d="M1349.1,265.6l10,16.6c-14.6,13.3-34.6,20.6-55.9,20.6c-45.9,0-73.5-33.3-73.5-88.2c0-27.9,6-45.9,20-62.5 c13.3-15.6,29.6-23,49.6-23c18,0,33.6,6.3,44.9,18c14.3,14.6,18.3,30.3,19,69.9v3.7h-103.5v4c0,15.6,2,27.6,7.7,36.3 c9.3,14.3,24.6,20.3,41.2,20.3C1324.4,281.3,1337.4,276.3,1349.1,265.6z M1259.6,201.1h75.8c-0.3-18-2.7-28.9-7.7-36.9 c-5.7-9-17.3-14.6-29.9-14.6C1274.2,149.5,1260.9,166.8,1259.6,201.1z"></path> </g> <g id="fresh_6_"> <path class="st3" d="M351,86.1c-6.3-3.6-15.6-7.6-24.5-7.6c-14.6,0-22.5,10.3-22.5,29.1v25.5h45.7l-7.9,19.5H304v145.3h-27.1 V152.6H261v-19.5h15.9v-25.8c0-24.5,11.3-35.1,18.2-40.4c7.9-6,16.9-8.6,29.1-8.6c14.2,0,26.8,3.3,36.4,9.6L351,86.1z"></path> <path class="st3" d="M363.7,137.7l25.8-6.9c0,0,6.3,12.9,5.3,26.8c11.9-16.9,29.5-27.5,46.3-27.5c4.3,0,8.9,1.7,8.9,1.7 l-10.6,28.1c-1.7-0.7-4.6-1.3-7.3-1.3c-9.9,0-19.9,4.3-27.5,11.9c-7.6,7.6-9.6,12.6-9.6,26.1v101.3h-25.8V172.8 C369.3,148.7,363.7,137.7,363.7,137.7z"></path> <path class="st3" d="M572.5,265.8l9.9,16.5c-14.6,13.2-34.4,20.5-55.6,20.5c-45.7,0-73.1-33.1-73.1-87.7c0-27.8,6-45.7,19.9-62.2 c13.2-15.6,29.5-22.8,49.3-22.8c17.9,0,33.4,6.3,44.7,17.9c14.2,14.6,18.2,30.1,18.9,69.5v3.6H483.5v4c0,15.6,2,27.5,7.6,36.1 c9.3,14.2,24.5,20.2,41,20.2C548,281.4,560.9,276.4,572.5,265.8z M483.5,201.6h75.5c-0.3-17.9-2.6-28.8-7.6-36.7 c-5.6-8.9-17.2-14.6-29.8-14.6C498,150.3,484.8,167.5,483.5,201.6z"></path> <path class="st3" d="M715.7,140.1l-9.6,19.2c-14.6-7-26.8-11.9-41.4-11.9c-18.9,0-31.1,10.9-31.1,27.1c0,12.6,6.3,20.2,23.8,23.8 l21.8,4.6c29.8,6.3,44,21.5,44,46c0,32.1-25.2,53.9-62.2,53.9c-20.9,0-43.7-6.3-60.6-16.5l9.9-19.2c16.9,10.3,34.1,15.6,52.3,15.6 c20.2,0,33.4-10.9,33.4-28.5c0-14.9-8.3-23.2-27.1-27.1l-20.5-4.3c-27.1-5.6-41.7-22.5-41.7-45.3c0-29.8,24.2-50.6,58.6-50.6 C682.6,126.8,701.8,132.1,715.7,140.1z"></path> <path class="st3" d="M736.3,63.4l25.8-7.4c0,0,4.3,13.9,4.3,39.1v38.4c0,10.6-1,22.5-1,22.5c14.9-13.9,33.8-26.1,54.9-26.1 c19.9,0,37.7,10.9,42.4,26.1c2,6.6,2.6,11.9,2.6,23.8v118.1h-25.5V184.1c0-12.2-1.7-19.9-6.3-24.5c-4-4-10.9-6.6-19.2-6.6 c-15.9,0-33.8,10.3-48,27.8v117.2h-25.8V94.7C740.6,71,736.3,63.4,736.3,63.4z"></path> </g> </g> </svg> 