<?xml version="1.0" encoding="UTF-8"?> <svg xmlns="http://www.w3.org/2000/svg" xmlns:xlink="http://www.w3.org/1999/xlink" version="1.1" id="mn" x="0px" y="0px" width="319px" height="364px" viewBox="0 0 319 364" xml:space="preserve"> <polygon fill="#FFFFFF" points="6.154,27.454 12.151,27.454 18.212,28.654 23.074,28.654 27.871,28.654 33.931,28.654 38.729,28.654 48.388,28.654 54.45,29.854 55.649,29.854 58.048,29.854 59.247,29.854 62.909,29.854 74.968,29.854 78.565,29.854 79.765,29.854 79.765,29.854 81.028,29.854 87.025,29.854 87.025,18.995 87.025,18.995 87.025,18.995 87.025,17.796 87.025,15.396 87.025,11.735 87.025,11.735 87.025,9.337 87.025,9.337 87.025,9.337 88.224,8.137 88.224,8.137 88.224,6.938 88.224,6.938 88.224,6.938 88.224,6.938 88.224,6.938 88.224,8.137 89.425,8.137 89.425,8.137 89.425,8.137 89.425,8.137 90.688,8.137 91.887,9.337 91.887,9.337 93.087,8.137 94.285,8.137 94.285,8.137 95.485,8.137 95.485,8.137 96.685,9.337 96.685,9.337 97.884,10.536 99.083,10.536 100.283,10.536 100.283,10.536 100.283,11.735 100.283,12.935 101.546,17.796 101.546,17.796 102.745,22.594 102.745,22.594 102.745,23.794 102.745,29.854 103.944,29.854 105.144,37.114 105.144,37.114 105.144,37.114 105.144,38.313 105.144,38.313 105.144,38.313 105.144,39.514 105.144,39.514 105.144,39.514 105.144,39.514 105.144,40.713 105.144,40.713 105.144,41.912 105.144,41.912 105.144,41.912 105.144,43.111 105.144,43.111 105.144,43.111 106.343,44.311 106.343,44.311 106.343,44.311 106.343,44.311 107.544,44.311 107.544,45.573 107.544,45.573 107.544,45.573 108.742,45.573 108.742,45.573 108.742,46.773 108.742,46.773 108.742,46.773 108.742,46.773 108.742,46.773 109.942,46.773 109.942,46.773 111.204,46.773 111.204,46.773 111.204,46.773 111.204,47.973 111.204,47.973 112.404,47.973 112.404,47.973 112.404,47.973 113.604,47.973 113.604,47.973 114.804,47.973 114.804,47.973 114.804,47.973 114.804,47.973 116.003,47.973 116.003,47.973 116.003,46.773 116.003,46.773 116.003,46.773 116.003,46.773 117.202,46.773 117.202,46.773 117.202,46.773 118.401,47.973 118.401,47.973 118.401,47.973 119.664,47.973 120.863,46.773 120.863,46.773 120.863,47.973 122.062,47.973 122.062,47.973 122.062,47.973 122.062,47.973 122.062,47.973 122.062,49.173 122.062,49.173 123.263,49.173 122.062,50.371 122.062,50.371 123.263,50.371 123.263,50.371 123.263,50.371 123.263,50.371 123.263,50.371 124.462,50.371 124.462,50.371 125.661,50.371 125.661,50.371 126.861,51.571 126.861,51.571 128.06,51.571 128.06,51.571 128.06,51.571 129.324,51.571 129.324,51.571 129.324,51.571 130.521,51.571 130.521,51.571 130.521,51.571 130.521,51.571 130.521,51.571 131.722,51.571 131.722,51.571 131.722,51.571 132.923,51.571 132.923,51.571 132.923,51.571 134.121,51.571 134.121,51.571 134.121,51.571 134.121,51.571 135.321,51.571 135.321,51.571 135.321,51.571 136.521,51.571 136.521,51.571 137.721,51.571 138.982,51.571 138.982,51.571 138.982,51.571 138.982,51.571 138.982,52.771 138.982,52.771 138.982,52.771 138.982,52.771 140.181,54.033 140.181,54.033 140.181,54.033 140.181,55.232 140.181,55.232 140.181,55.232 140.181,55.232 140.181,56.433 140.181,56.433 140.181,56.433 140.181,57.632 140.181,57.632 140.181,57.632 140.181,57.632 140.181,57.632 140.181,57.632 140.181,57.632 140.181,57.632 140.181,58.83 140.181,58.83 140.181,58.83 140.181,58.83 141.382,58.83 141.382,58.83 141.382,58.83 142.58,58.83 142.58,58.83 142.58,58.83 142.58,58.83 142.58,58.83 142.58,58.83 143.78,58.83 143.78,58.83 143.78,58.83 143.78,58.83 143.78,58.83 143.78,58.83 143.78,58.83 143.78,58.83 144.979,58.83 144.979,58.83 144.979,58.83 146.179,58.83 146.179,58.83 146.179,58.83 147.38,58.83 147.38,57.632 147.38,57.632 147.38,57.632 147.38,57.632 147.38,57.632 147.38,58.83 147.38,58.83 147.38,58.83 147.38,58.83 148.578,58.83 148.578,58.83 148.578,57.632 148.578,57.632 148.578,57.632 148.578,57.632 149.841,57.632 151.04,57.632 151.04,57.632 151.04,57.632 151.04,57.632 152.239,57.632 152.239,57.632 153.438,57.632 153.438,56.433 153.438,56.433 153.438,56.433 153.438,56.433 154.638,56.433 153.438,55.232 153.438,55.232 153.438,55.232 153.438,54.033 153.438,54.033 153.438,54.033 154.638,54.033 154.638,54.033 154.638,54.033 154.638,54.033 154.638,54.033 154.638,54.033 155.839,52.771 155.839,52.771 155.839,52.771 155.839,52.771 155.839,52.771 155.839,54.033 155.839,54.033 157.038,54.033 157.038,52.771 157.038,52.771 157.038,52.771 157.038,52.771 158.3,52.771 158.3,52.771 158.3,52.771 158.3,52.771 158.3,51.571 158.3,51.571 158.3,51.571 161.898,51.571 164.298,51.571 164.298,51.571 164.298,51.571 165.496,51.571 166.695,51.571 167.896,51.571 172.757,51.571 173.957,51.571 173.957,51.571 173.957,52.771 175.158,52.771 175.158,54.033 176.355,54.033 182.416,56.433 186.015,56.433 186.015,56.433 187.277,57.632 187.277,57.632 187.277,58.83 187.277,58.83 187.277,58.83 187.277,58.83 187.277,58.83 187.277,58.83 186.015,58.83 186.015,58.83 186.015,58.83 184.814,58.83 184.814,58.83 183.617,60.03 183.617,60.03 183.617,61.23 183.617,61.23 183.617,61.23 184.814,62.43 184.814,62.43 186.015,62.43 188.478,62.43 190.875,62.43 190.875,62.43 192.074,62.43 192.074,62.43 192.074,63.63 192.074,63.63 192.074,63.63 192.074,63.63 192.074,63.63 193.275,63.63 193.275,63.63 193.275,64.892 193.275,66.092 193.275,67.29 193.275,68.49 193.275,69.689 194.474,69.689 194.474,69.689 194.474,70.89 194.474,70.89 194.474,70.89 194.474,70.89 195.675,70.89 195.675,72.089 195.675,73.352 196.873,73.352 196.873,73.352 196.873,73.352 196.873,73.352 196.873,74.551 196.873,74.551 196.873,74.551 196.873,74.551 196.873,74.551 196.873,74.551 196.873,74.551 196.873,74.551 196.873,75.75 196.873,75.75 198.137,75.75 198.137,74.551 198.137,74.551 198.137,74.551 198.137,74.551 198.137,74.551 199.337,74.551 199.337,74.551 199.337,74.551 199.337,74.551 200.535,74.551 201.734,73.352 200.535,73.352 200.535,73.352 200.535,72.089 200.535,72.089 200.535,72.089 200.535,72.089 199.337,70.89 200.535,70.89 199.337,69.689 199.337,69.689 200.535,69.689 200.535,68.49 201.734,67.29 202.935,67.29 202.935,67.29 202.935,68.49 204.134,67.29 202.935,67.29 202.935,67.29 204.134,67.29 204.134,67.29 204.134,67.29 204.134,67.29 204.134,67.29 204.134,67.29 204.134,67.29 205.332,67.29 206.596,67.29 206.596,67.29 207.796,67.29 208.994,67.29 208.994,67.29 208.994,67.29 208.994,67.29 210.193,67.29 210.193,67.29 210.193,67.29 210.193,67.29 210.193,68.49 210.193,68.49 210.193,68.49 211.394,69.689 211.394,70.89 211.394,70.89 211.394,72.089 211.394,72.089 212.593,73.352 212.593,73.352 212.593,73.352 212.593,73.352 212.593,73.352 212.593,73.352 212.593,73.352 212.593,73.352 212.593,73.352 213.793,73.352 213.793,73.352 213.793,73.352 213.793,73.352 213.793,73.352 213.793,73.352 213.793,73.352 213.793,74.551 213.793,74.551 213.793,74.551 213.793,74.551 213.793,74.551 213.793,74.551 213.793,74.551 213.793,74.551 213.793,74.551 214.992,74.551 214.992,74.551 214.992,74.551 214.992,73.352 216.255,73.352 216.255,74.551 216.255,74.551 216.255,73.352 216.255,74.551 217.453,74.551 217.453,75.75 218.654,75.75 218.654,75.75 218.654,75.75 218.654,75.75 219.854,75.75 219.854,75.75 219.854,75.75 219.854,75.75 219.854,75.75 219.854,75.75 219.854,75.75 221.054,75.75 221.054,75.75 221.054,75.75 221.054,75.75 221.054,75.75 222.253,75.75 222.253,75.75 222.253,75.75 222.253,75.75 222.253,75.75 222.253,75.75 223.451,75.75 223.451,76.95 223.451,76.95 223.451,76.95 223.451,76.95 223.451,76.95 223.451,78.149 223.451,78.149 223.451,78.149 223.451,78.149 223.451,78.149 223.451,78.149 223.451,78.149 223.451,79.35 223.451,79.35 223.451,79.35 224.65,79.35 224.65,79.35 223.451,80.549 223.451,80.549 223.451,80.549 223.451,80.549 223.451,80.549 223.451,80.549 224.65,80.549 224.65,80.549 224.65,80.549 224.65,80.549 224.65,81.747 224.65,81.747 224.65,81.747 224.65,81.747 225.851,81.747 225.851,81.747 225.851,80.549 225.851,80.549 225.851,80.549 225.851,81.747 225.851,81.747 227.113,81.747 228.312,81.747 229.513,81.747 229.513,81.747 229.513,81.747 229.513,81.747 229.513,84.209 229.513,84.209 229.513,84.209 229.513,85.409 230.712,84.209 233.111,83.011 233.111,83.011 234.311,83.011 234.311,83.011 234.311,84.209 234.311,84.209 234.311,84.209 234.311,84.209 235.574,84.209 235.574,84.209 236.771,84.209 236.771,83.011 236.771,83.011 237.973,83.011 237.973,83.011 237.973,83.011 239.172,83.011 239.172,83.011 239.172,83.011 239.172,83.011 239.172,83.011 239.172,83.011 239.172,83.011 240.371,83.011 240.371,83.011 241.57,83.011 241.57,83.011 241.57,81.747 242.771,81.747 242.771,81.747 243.971,80.549 243.971,79.35 245.169,79.35 245.169,79.35 245.169,78.149 246.432,78.149 246.432,78.149 246.432,78.149 246.432,78.149 247.631,76.95 247.631,76.95 247.631,76.95 247.631,76.95 247.631,76.95 247.631,76.95 248.83,76.95 248.83,75.75 248.83,76.95 248.83,76.95 248.83,75.75 248.83,75.75 250.029,75.75 250.029,75.75 250.029,75.75 250.029,75.75 250.029,75.75 251.229,75.75 251.229,75.75 251.229,74.551 251.229,74.551 251.229,74.551 252.43,73.352 254.893,73.352 254.893,73.352 254.893,72.089 256.091,72.089 256.091,72.089 256.091,72.089 256.091,72.089 257.289,72.089 257.289,72.089 257.289,72.089 258.49,72.089 258.49,72.089 258.49,73.352 258.49,73.352 258.49,74.551 258.49,75.75 258.49,75.75 258.49,75.75 258.49,75.75 258.49,75.75 258.49,75.75 258.49,75.75 258.49,75.75 258.49,75.75 259.689,75.75 259.689,75.75 259.689,76.95 259.689,76.95 260.889,76.95 260.889,76.95 260.889,76.95 260.889,76.95 260.889,76.95 260.889,76.95 260.889,78.149 260.889,78.149 259.689,78.149 259.689,78.149 259.689,78.149 259.689,78.149 259.689,78.149 260.889,78.149 259.689,79.35 260.889,79.35 260.889,79.35 260.889,79.35 260.889,79.35 260.889,79.35 260.889,79.35 260.889,79.35 260.889,79.35 260.889,80.549 260.889,80.549 262.088,80.549 262.088,80.549 263.287,80.549 264.486,80.549 265.75,80.549 266.949,79.35 266.949,79.35 266.949,79.35 268.148,79.35 268.148,79.35 268.148,79.35 268.148,79.35 268.148,78.149 268.148,79.35 269.35,79.35 269.35,79.35 269.35,79.35 269.35,79.35 269.35,79.35 269.35,80.549 269.35,80.549 269.35,80.549 271.746,80.549 271.746,80.549 271.746,80.549 271.746,80.549 271.746,80.549 271.746,80.549 271.746,80.549 271.746,80.549 271.746,80.549 272.947,80.549 272.947,79.35 272.947,79.35 272.947,79.35 272.947,79.35 272.947,79.35 274.146,79.35 274.146,79.35 274.146,79.35 274.146,80.549 275.408,79.35 275.408,79.35 276.607,79.35 276.607,79.35 276.607,79.35 276.607,80.549 276.607,80.549 276.607,80.549 276.607,80.549 276.607,80.549 276.607,80.549 276.607,80.549 277.809,80.549 277.809,80.549 277.809,80.549 277.809,80.549 277.809,80.549 277.809,80.549 277.809,79.35 279.008,79.35 279.008,79.35 279.008,79.35 279.008,79.35 280.207,79.35 280.207,79.35 280.207,79.35 280.207,79.35 281.406,79.35 281.406,79.35 282.605,79.35 282.605,79.35 282.605,79.35 283.869,79.35 283.869,79.35 283.869,79.35 285.068,78.149 285.068,79.35 285.068,78.149 286.268,78.149 286.268,78.149 286.268,78.149 286.268,78.149 286.268,79.35 286.268,79.35 286.268,79.35 286.268,79.35 287.468,79.35 287.468,79.35 288.666,79.35 289.867,79.35 289.867,79.35 289.867,79.35 289.867,79.35 289.867,79.35 291.064,79.35 291.064,80.549 291.064,80.549 291.064,80.549 291.064,80.549 292.266,81.747 292.266,81.747 292.266,83.011 292.266,83.011 292.266,83.011 292.266,83.011 292.266,83.011 292.266,83.011 292.266,83.011 292.266,83.011 293.465,84.209 293.465,84.209 293.465,84.209 293.465,84.209 293.465,84.209 294.729,84.209 294.729,84.209 294.729,84.209 294.729,84.209 294.729,84.209 295.927,85.409 295.927,85.409 295.927,85.409 295.927,85.409 295.927,85.409 295.927,85.409 295.927,85.409 297.125,85.409 297.125,85.409 297.125,85.409 297.125,85.409 297.125,85.409 297.125,85.409 298.326,85.409 298.326,84.209 298.326,84.209 298.326,84.209 298.326,84.209 298.326,84.209 299.525,84.209 299.525,84.209 299.525,83.011 299.525,84.209 299.525,83.011 299.525,83.011 300.725,83.011 300.725,83.011 300.725,83.011 300.725,83.011 300.725,83.011 301.924,83.011 301.924,83.011 301.924,83.011 301.924,83.011 301.924,83.011 301.924,83.011 303.188,83.011 303.188,83.011 303.188,83.011 303.188,83.011 303.188,83.011 303.188,83.011 303.188,83.011 303.188,83.011 303.188,83.011 303.188,83.011 303.188,84.209 303.188,84.209 303.188,84.209 303.188,84.209 303.188,84.209 303.188,84.209 304.387,84.209 304.387,83.011 304.387,83.011 304.387,84.209 304.387,84.209 304.387,83.011 304.387,83.011 304.387,83.011 305.586,83.011 305.586,84.209 305.586,84.209 305.586,84.209 305.586,83.011 305.586,83.011 305.586,84.209 305.586,84.209 305.586,84.209 305.586,84.209 305.586,84.209 305.586,84.209 306.785,84.209 306.785,84.209 306.785,84.209 306.785,84.209 306.785,84.209 306.785,83.011 306.785,83.011 306.785,83.011 306.785,83.011 306.785,83.011 306.785,83.011 306.785,83.011 307.984,83.011 307.984,83.011 307.984,83.011 307.984,84.209 307.984,84.209 307.984,84.209 307.984,84.209 307.984,84.209 307.984,84.209 307.984,84.209 309.186,84.209 309.186,84.209 309.186,84.209 312.846,83.011 311.582,83.011 311.582,83.011 311.582,84.209 311.582,84.209 310.384,84.209 310.384,84.209 310.384,85.409 310.384,85.409 309.186,85.409 309.186,85.409 307.984,86.608 307.984,85.409 307.984,85.409 307.984,85.409 306.785,85.409 306.785,85.409 306.785,85.409 306.785,85.409 306.785,86.608 306.785,86.608 306.785,86.608 306.785,86.608 305.586,86.608 305.586,86.608 304.387,87.809 304.387,87.809 303.188,87.809 303.188,89.009 303.188,89.009 301.924,90.207 301.924,90.207 301.924,90.207 300.725,91.407 299.525,91.407 299.525,91.407 298.326,91.407 298.326,91.407 298.326,92.606 298.326,92.606 297.125,92.606 297.125,92.606 297.125,92.606 295.927,92.606 295.927,92.606 294.729,92.606 295.927,93.869 294.729,93.869 294.729,93.869 294.729,93.869 294.729,93.869 293.465,95.068 293.465,95.068 292.266,95.068 291.064,96.268 291.064,96.268 291.064,96.268 289.867,96.268 289.867,96.268 289.867,96.268 289.867,96.268 289.867,96.268 288.666,96.268 288.666,97.468 287.468,97.468 287.468,97.468 287.468,97.468 286.268,97.468 286.268,97.468 286.268,97.468 285.068,97.468 285.068,98.666 283.869,98.666 283.869,98.666 282.605,98.666 282.605,98.666 282.605,98.666 281.406,99.866 281.406,99.866 280.207,99.866 280.207,99.866 280.207,99.866 280.207,99.866 280.207,99.866 280.207,99.866 279.008,99.866 279.008,101.066 279.008,101.066 279.008,101.066 279.008,101.066 279.008,101.066 277.809,101.066 277.809,101.066 276.607,101.066 275.408,101.066 275.408,102.266 275.408,102.266 274.146,102.266 272.947,103.529 271.746,103.529 271.746,103.529 271.746,103.529 271.746,103.529 270.548,104.728 269.35,104.728 268.148,105.928 268.148,105.928 266.949,105.928 266.949,105.928 266.949,107.127 265.75,107.127 264.486,108.326 264.486,108.326 263.287,108.326 262.088,109.525 262.088,110.726 260.889,110.726 260.889,111.925 259.689,111.925 259.689,111.925 258.49,113.188 258.49,113.188 258.49,113.188 258.49,113.188 257.289,114.387 257.289,114.387 257.289,114.387 257.289,115.586 256.091,115.586 256.091,115.586 256.091,115.586 256.091,115.586 256.091,115.586 256.091,115.586 254.893,116.787 254.893,116.787 254.893,116.787 253.629,117.985 253.629,117.985 252.43,117.985 252.43,119.185 252.43,119.185 252.43,119.185 251.229,119.185 251.229,119.185 251.229,120.385 251.229,120.385 250.029,120.385 250.029,121.584 250.029,121.584 248.83,121.584 248.83,122.847 248.83,122.847 247.631,124.045 247.631,124.045 247.631,124.045 247.631,124.045 247.631,124.045 247.631,124.045 246.432,125.246 246.432,125.246 246.432,126.444 246.432,126.444 246.432,126.444 246.432,126.444 245.169,126.444 245.169,126.444 245.169,127.645 243.971,128.844 243.971,128.844 243.971,128.844 243.971,128.844 243.971,128.844 243.971,128.844 243.971,130.043 242.771,130.043 242.771,130.043 242.771,130.043 242.771,130.043 242.771,131.307 242.771,131.307 241.57,131.307 240.371,132.506 240.371,132.506 240.371,133.705 240.371,133.705 240.371,133.705 240.371,133.705 239.172,133.705 239.172,134.904 239.172,134.904 239.172,134.904 239.172,134.904 239.172,136.104 237.973,136.104 237.973,136.104 237.973,136.104 236.771,136.104 236.771,137.304 236.771,137.304 235.574,138.502 235.574,138.502 235.574,138.502 235.574,139.703 234.311,139.703 234.311,139.703 234.311,139.703 233.111,140.966 233.111,140.966 233.111,140.966 231.91,140.966 231.91,140.966 230.712,142.164 230.712,142.164 230.712,143.365 229.513,143.365 229.513,143.365 229.513,143.365 229.513,143.365 229.513,144.563 229.513,144.563 229.513,144.563 228.312,144.563 228.312,144.563 228.312,144.563 228.312,144.563 228.312,145.764 228.312,145.764 228.312,145.764 227.113,145.764 227.113,146.963 227.113,146.963 225.851,146.963 225.851,146.963 224.65,148.162 224.65,148.162 223.451,149.361 223.451,149.361 223.451,149.361 223.451,150.561 223.451,150.561 222.253,150.561 222.253,150.561 222.253,151.824 221.054,151.824 221.054,151.824 221.054,151.824 219.854,153.023 218.654,153.023 218.654,153.023 218.654,154.223 217.453,154.223 217.453,154.223 217.453,154.223 216.255,155.423 214.992,156.621 213.793,156.621 213.793,157.822 213.793,157.822 213.793,157.822 212.593,157.822 212.593,157.822 212.593,157.822 212.593,159.021 212.593,159.021 211.394,159.021 211.394,159.021 211.394,159.021 211.394,159.021 211.394,159.021 211.394,160.221 210.193,160.221 210.193,160.221 210.193,160.221 211.394,161.482 211.394,162.683 213.793,165.082 213.793,165.082 213.793,165.082 213.793,165.082 212.593,165.082 212.593,165.082 211.394,163.882 211.394,163.882 211.394,162.683 210.193,162.683 210.193,162.683 208.994,162.683 208.994,162.683 208.994,163.882 208.994,163.882 208.994,163.882 208.994,163.882 208.994,165.082 208.994,165.082 207.796,165.082 207.796,163.882 207.796,165.082 207.796,165.082 207.796,165.082 206.596,165.082 206.596,165.082 206.596,165.082 206.596,165.082 206.596,165.082 206.596,165.082 206.596,165.082 206.596,165.082 206.596,166.281 206.596,166.281 207.796,166.281 207.796,166.281 207.796,166.281 207.796,166.281 206.596,166.281 206.596,166.281 206.596,167.48 206.596,167.48 206.596,167.48 206.596,167.48 206.596,167.48 206.596,168.68 206.596,168.68 206.596,168.68 206.596,168.68 205.332,168.68 205.332,168.68 205.332,168.68 205.332,168.68 204.134,168.68 204.134,168.68 204.134,168.68 204.134,168.68 202.935,168.68 202.935,168.68 202.935,168.68 202.935,168.68 202.935,168.68 202.935,167.48 202.935,167.48 202.935,167.48 202.935,167.48 202.935,167.48 202.935,167.48 202.935,168.68 202.935,169.942 202.935,171.142 202.935,172.342 202.935,172.342 202.935,175.939 202.935,175.939 202.935,177.14 202.935,178.338 202.935,178.338 202.935,182 202.935,182 202.935,182 202.935,187.998 202.935,187.998 202.935,187.998 202.935,187.998 202.935,187.998 202.935,187.998 202.935,189.26 202.935,189.26 202.935,189.26 202.935,189.26 202.935,190.459 202.935,191.66 202.935,192.859 202.935,194.059 202.935,196.457 202.935,197.658 202.935,197.658 202.935,200.119 202.935,202.518 202.935,202.518 202.935,202.518 202.935,202.518 202.935,202.518 202.935,203.717 201.734,203.717 201.734,203.717 201.734,203.717 201.734,203.717 201.734,203.717 201.734,203.717 201.734,204.916 201.734,204.916 201.734,204.916 201.734,204.916 201.734,204.916 201.734,206.117 201.734,206.117 201.734,206.117 201.734,206.117 201.734,206.117 201.734,206.117 200.535,206.117 200.535,206.117 200.535,206.117 199.337,206.117 199.337,206.117 199.337,206.117 198.137,206.117 198.137,206.117 198.137,206.117 198.137,206.117 196.873,206.117 196.873,206.117 196.873,207.316 196.873,207.316 196.873,207.316 196.873,207.316 196.873,207.316 196.873,207.316 196.873,207.316 196.873,208.578 196.873,208.578 196.873,208.578 196.873,208.578 196.873,208.578 196.873,208.578 196.873,208.578 195.675,208.578 195.675,208.578 195.675,208.578 195.675,208.578 195.675,208.578 195.675,208.578 194.474,208.578 194.474,208.578 194.474,208.578 194.474,208.578 194.474,208.578 193.275,208.578 193.275,208.578 193.275,209.779 193.275,209.779 193.275,209.779 193.275,209.779 193.275,209.779 193.275,209.779 192.074,210.977 192.074,210.977 192.074,210.977 192.074,210.977 190.875,210.977 190.875,210.977 190.875,210.977 190.875,210.977 190.875,210.977 189.677,210.977 189.677,210.977 189.677,210.977 189.677,210.977 189.677,210.977 189.677,210.977 189.677,212.178 189.677,212.178 188.478,212.178 188.478,212.178 188.478,212.178 188.478,212.178 187.277,213.377 188.478,213.377 187.277,213.377 187.277,213.377 187.277,213.377 187.277,213.377 187.277,213.377 187.277,213.377 187.277,213.377 187.277,213.377 186.015,214.576 186.015,214.576 186.015,215.775 186.015,215.775 186.015,215.775 186.015,215.775 184.814,216.975 184.814,216.975 184.814,216.975 184.814,216.975 184.814,216.975 184.814,216.975 184.814,218.174 184.814,218.174 184.814,218.174 184.814,218.174 184.814,218.174 184.814,218.174 184.814,218.174 184.814,219.438 184.814,219.438 184.814,219.438 183.617,219.438 183.617,219.438 183.617,220.637 183.617,220.637 183.617,220.637 183.617,220.637 183.617,221.836 183.617,221.836 183.617,221.836 182.416,221.836 182.416,223.035 182.416,223.035 182.416,223.035 182.416,223.035 182.416,223.035 182.416,223.035 182.416,223.035 182.416,223.035 182.416,223.035 181.218,223.035 181.218,223.035 181.218,223.035 181.218,224.234 181.218,224.234 181.218,224.234 181.218,224.234 181.218,224.234 181.218,224.234 180.017,224.234 180.017,224.234 180.017,224.234 180.017,224.234 180.017,224.234 180.017,225.436 180.017,225.436 180.017,226.635 180.017,226.635 180.017,227.834 180.017,227.834 180.017,227.834 180.017,229.096 180.017,229.096 180.017,229.096 180.017,229.096 180.017,229.096 180.017,229.096 180.017,229.096 180.017,230.295 180.017,230.295 180.017,230.295 180.017,230.295 180.017,230.295 180.017,231.496 180.017,231.496 180.017,231.496 180.017,231.496 180.017,232.695 180.017,232.695 180.017,232.695 180.017,233.895 181.218,233.895 181.218,233.895 181.218,233.895 182.416,233.895 182.416,233.895 182.416,233.895 183.617,233.895 183.617,233.895 183.617,233.895 183.617,232.695 183.617,232.695 184.814,233.895 184.814,233.895 184.814,233.895 184.814,233.895 184.814,233.895 184.814,233.895 184.814,233.895 186.015,233.895 186.015,235.094 186.015,235.094 186.015,235.094 186.015,235.094 186.015,236.293 186.015,236.293 186.015,236.293 186.015,236.293 187.277,236.293 187.277,237.557 187.277,237.557 187.277,237.557 187.277,238.756 187.277,238.756 187.277,238.756 187.277,238.756 188.478,238.756 188.478,238.756 188.478,238.756 188.478,239.955 188.478,239.955 189.677,239.955 189.677,239.955 189.677,241.154 189.677,241.154 189.677,241.154 189.677,241.154 189.677,241.154 189.677,242.354 189.677,242.354 189.677,242.354 189.677,242.354 189.677,242.354 189.677,242.354 189.677,243.553 189.677,243.553 189.677,243.553 188.478,243.553 188.478,243.553 188.478,243.553 188.478,243.553 188.478,244.752 188.478,244.752 188.478,244.752 188.478,244.752 187.277,244.752 187.277,245.953 187.277,245.953 187.277,245.953 187.277,247.152 187.277,247.152 187.277,247.152 187.277,247.152 187.277,247.152 187.277,247.152 187.277,248.414 186.015,248.414 186.015,248.414 186.015,248.414 186.015,249.615 186.015,249.615 186.015,249.615 184.814,249.615 184.814,249.615 184.814,249.615 184.814,249.615 184.814,250.812 184.814,250.812 186.015,250.812 186.015,250.812 186.015,250.812 184.814,252.014 184.814,252.014 184.814,252.014 184.814,253.213 184.814,253.213 184.814,253.213 186.015,253.213 186.015,253.213 186.015,254.412 186.015,254.412 186.015,254.412 184.814,254.412 184.814,254.412 184.814,254.412 184.814,255.611 184.814,255.611 184.814,255.611 184.814,255.611 184.814,256.873 186.015,256.873 186.015,256.873 186.015,256.873 186.015,256.873 184.814,256.873 184.814,256.873 184.814,258.074 184.814,258.074 186.015,259.273 186.015,259.273 186.015,260.473 186.015,260.473 186.015,260.473 186.015,260.473 186.015,260.473 186.015,260.473 186.015,260.473 186.015,260.473 184.814,261.672 184.814,261.672 184.814,261.672 183.617,261.672 183.617,261.672 183.617,262.871 183.617,262.871 183.617,262.871 183.617,262.871 183.617,262.871 183.617,264.072 183.617,264.072 183.617,264.072 183.617,264.072 183.617,264.072 184.814,264.072 184.814,264.072 184.814,265.27 184.814,265.27 184.814,265.27 184.814,265.27 184.814,265.27 184.814,265.27 184.814,265.27 184.814,266.533 184.814,266.533 184.814,266.533 184.814,266.533 184.814,266.533 184.814,266.533 184.814,267.732 184.814,267.732 184.814,267.732 184.814,267.732 184.814,267.732 184.814,267.732 184.814,268.932 184.814,268.932 184.814,268.932 184.814,268.932 186.015,268.932 186.015,268.932 186.015,270.131 186.015,270.131 186.015,270.131 186.015,270.131 186.015,270.131 186.015,270.131 186.015,271.332 186.015,271.332 186.015,272.531 186.015,272.531 186.015,272.531 184.814,272.531 184.814,272.531 184.814,272.531 184.814,272.531 184.814,272.531 184.814,273.73 184.814,273.73 184.814,273.73 184.814,273.73 186.015,274.93 184.814,274.93 184.814,274.93 184.814,274.93 184.814,274.93 184.814,276.129 184.814,276.129 184.814,276.129 184.814,276.129 184.814,276.129 184.814,277.393 184.814,277.393 184.814,277.393 184.814,277.393 184.814,277.393 184.814,277.393 184.814,278.592 184.814,278.592 184.814,278.592 184.814,278.592 184.814,278.592 184.814,279.791 184.814,279.791 183.617,279.791 183.617,279.791 183.617,280.99 183.617,280.99 183.617,280.99 183.617,282.189 183.617,282.189 183.617,282.189 183.617,282.189 184.814,282.189 184.814,282.189 184.814,282.189 184.814,283.389 186.015,283.389 186.015,283.389 186.015,283.389 186.015,283.389 187.277,283.389 187.277,283.389 187.277,284.588 188.478,284.588 188.478,285.852 188.478,285.852 188.478,285.852 189.677,287.051 189.677,287.051 189.677,287.051 189.677,287.051 189.677,287.051 190.875,288.25 192.074,288.25 192.074,288.25 192.074,289.451 192.074,289.451 192.074,289.451 192.074,289.451 192.074,289.451 192.074,289.451 192.074,289.451 192.074,289.451 192.074,289.451 192.074,289.451 193.275,290.648 193.275,290.648 193.275,290.648 193.275,290.648 193.275,290.648 193.275,290.648 193.275,290.648 193.275,290.648 193.275,290.648 194.474,290.648 194.474,290.648 194.474,290.648 194.474,291.85 194.474,291.85 194.474,291.85 194.474,291.85 194.474,291.85 194.474,291.85 194.474,291.85 194.474,293.049 194.474,293.049 195.675,293.049 195.675,293.049 195.675,291.85 195.675,291.85 195.675,291.85 195.675,291.85 195.675,291.85 195.675,291.85 196.873,291.85 196.873,291.85 196.873,291.85 196.873,291.85 196.873,293.049 196.873,293.049 196.873,293.049 196.873,293.049 198.137,291.85 198.137,291.85 198.137,293.049 198.137,293.049 198.137,293.049 199.337,293.049 199.337,293.049 199.337,293.049 199.337,293.049 200.535,293.049 200.535,293.049 200.535,293.049 200.535,293.049 200.535,293.049 200.535,293.049 201.734,293.049 201.734,293.049 201.734,293.049 201.734,293.049 201.734,293.049 202.935,293.049 202.935,293.049 202.935,293.049 202.935,293.049 204.134,293.049 204.134,293.049 204.134,293.049 204.134,293.049 204.134,294.248 205.332,294.248 205.332,294.248 205.332,294.248 205.332,294.248 205.332,294.248 205.332,295.447 205.332,295.447 205.332,295.447 205.332,295.447 205.332,296.709 205.332,296.709 205.332,296.709 205.332,296.709 205.332,296.709 205.332,296.709 205.332,296.709 206.596,296.709 206.596,296.709 206.596,297.91 206.596,297.91 206.596,297.91 207.796,299.109 207.796,299.109 207.796,299.109 207.796,299.109 207.796,299.109 208.994,299.109 208.994,299.109 208.994,299.109 210.193,300.309 210.193,300.309 211.394,300.309 211.394,300.309 211.394,300.309 212.593,300.309 212.593,300.309 212.593,300.309 213.793,301.508 213.793,301.508 213.793,301.508 213.793,301.508 213.793,301.508 213.793,301.508 214.992,301.508 214.992,301.508 214.992,301.508 214.992,301.508 216.255,301.508 216.255,301.508 216.255,301.508 216.255,301.508 216.255,302.707 216.255,302.707 216.255,302.707 217.453,302.707 217.453,302.707 218.654,302.707 218.654,302.707 218.654,302.707 218.654,302.707 218.654,303.908 218.654,303.908 218.654,303.908 219.854,303.908 219.854,303.908 219.854,303.908 219.854,303.908 219.854,303.908 219.854,303.908 219.854,303.908 219.854,303.908 219.854,303.908 221.054,303.908 221.054,305.17 221.054,305.17 221.054,305.17 221.054,305.17 222.253,305.17 222.253,306.369 222.253,306.369 222.253,306.369 222.253,306.369 222.253,307.568 222.253,307.568 222.253,307.568 222.253,307.568 222.253,307.568 222.253,307.568 222.253,308.768 222.253,308.768 222.253,308.768 222.253,308.768 222.253,308.768 222.253,308.768 223.451,308.768 223.451,308.768 223.451,308.768 223.451,309.967 223.451,309.967 223.451,309.967 223.451,309.967 223.451,309.967 223.451,309.967 223.451,309.967 223.451,311.166 223.451,311.166 223.451,311.166 223.451,311.166 223.451,312.367 223.451,312.367 223.451,312.367 223.451,312.367 223.451,313.566 223.451,313.566 223.451,313.566 224.65,313.566 224.65,313.566 224.65,313.566 224.65,313.566 224.65,313.566 224.65,313.566 225.851,314.766 225.851,314.766 225.851,314.766 225.851,314.766 225.851,314.766 225.851,314.766 227.113,316.029 227.113,316.029 227.113,316.029 228.312,316.029 228.312,317.227 229.513,317.227 229.513,317.227 229.513,317.227 229.513,317.227 230.712,317.227 230.712,317.227 230.712,317.227 230.712,317.227 230.712,318.428 231.91,318.428 231.91,318.428 231.91,318.428 231.91,318.428 231.91,319.627 231.91,319.627 231.91,319.627 231.91,319.627 233.111,319.627 233.111,319.627 233.111,319.627 233.111,319.627 233.111,319.627 233.111,320.826 233.111,320.826 233.111,320.826 233.111,320.826 234.311,320.826 234.311,320.826 234.311,320.826 234.311,320.826 234.311,320.826 234.311,320.826 234.311,320.826 234.311,322.025 234.311,322.025 235.574,322.025 235.574,322.025 235.574,322.025 235.574,322.025 235.574,322.025 235.574,322.025 235.574,322.025 235.574,322.025 235.574,322.025 235.574,322.025 235.574,323.225 236.771,323.225 236.771,323.225 236.771,323.225 236.771,323.225 236.771,323.225 236.771,323.225 236.771,323.225 236.771,323.225 236.771,323.225 237.973,323.225 237.973,323.225 237.973,323.225 239.172,323.225 239.172,323.225 240.371,323.225 240.371,323.225 240.371,324.424 241.57,324.424 241.57,324.424 241.57,324.424 241.57,324.424 242.771,324.424 242.771,324.424 242.771,324.424 242.771,324.424 242.771,324.424 242.771,324.424 242.771,324.424 243.971,324.424 243.971,325.688 243.971,325.688 243.971,325.688 243.971,325.688 243.971,325.688 243.971,325.688 243.971,326.887 243.971,326.887 245.169,326.887 245.169,326.887 245.169,326.887 245.169,326.887 246.432,328.086 246.432,328.086 246.432,328.086 246.432,328.086 246.432,329.287 246.432,329.287 246.432,329.287 247.631,329.287 247.631,329.287 247.631,330.484 247.631,330.484 247.631,330.484 247.631,330.484 247.631,330.484 247.631,330.484 247.631,330.484 247.631,330.484 248.83,331.686 248.83,331.686 248.83,331.686 248.83,331.686 248.83,331.686 248.83,331.686 248.83,332.885 248.83,332.885 248.83,332.885 248.83,332.885 250.029,332.885 250.029,332.885 250.029,334.146 250.029,334.146 250.029,334.146 250.029,334.146 250.029,334.146 250.029,335.346 251.229,335.346 251.229,335.346 251.229,336.545 251.229,336.545 251.229,336.545 251.229,336.545 251.229,336.545 251.229,337.746 252.43,337.746 252.43,337.746 252.43,338.945 251.229,340.145 251.229,340.145 251.229,340.145 251.229,340.145 251.229,341.344 251.229,341.344 251.229,341.344 251.229,341.344 251.229,341.344 251.229,342.543 251.229,342.543 251.229,343.742 251.229,343.742 251.229,345.006 251.229,345.006 251.229,345.006 251.229,345.006 251.229,345.006 251.229,345.006 251.229,346.205 251.229,346.205 251.229,346.205 251.229,347.404 251.229,347.404 251.229,347.404 251.229,348.604 252.43,348.604 252.43,348.604 252.43,348.604 252.43,348.604 252.43,348.604 252.43,348.604 252.43,348.604 252.43,348.604 252.43,349.803 252.43,349.803 252.43,349.803 252.43,349.803 252.43,349.803 252.43,351.002 252.43,351.002 252.43,351.002 252.43,351.002 252.43,351.002 252.43,351.002 252.43,352.201 252.43,352.201 252.43,352.201 253.629,352.201 253.629,353.465 253.629,353.465 253.629,353.465 253.629,353.465 253.629,353.465 253.629,353.465 253.629,354.664 252.43,354.664 252.43,354.664 252.43,354.664 251.229,354.664 250.029,354.664 247.631,354.664 247.631,354.664 246.432,354.664 246.432,354.664 243.971,354.664 243.971,354.664 242.771,354.664 242.771,354.664 241.57,354.664 240.371,354.664 239.172,354.664 239.172,354.664 237.973,354.664 236.771,354.664 236.771,354.664 236.771,354.664 236.771,354.664 235.574,354.664 235.574,354.664 235.574,354.664 235.574,354.664 235.574,354.664 234.311,354.664 234.311,354.664 233.111,354.664 231.91,354.664 231.91,354.664 231.91,354.664 230.712,354.664 230.712,354.664 229.513,354.664 229.513,354.664 229.513,354.664 228.312,354.664 228.312,354.664 227.113,354.664 225.851,354.664 225.851,354.664 225.851,354.664 222.253,354.664 222.253,354.664 221.054,354.664 221.054,354.664 221.054,354.664 221.054,354.664 219.854,354.664 216.255,354.664 216.255,354.664 214.992,354.664 212.593,355.863 211.394,355.863 211.394,355.863 207.796,355.863 206.596,355.863 206.596,355.863 205.332,355.863 204.134,355.863 204.134,355.863 204.134,355.863 202.935,355.863 202.935,355.863 201.734,355.863 200.535,355.863 200.535,355.863 199.337,355.863 196.873,355.863 195.675,355.863 195.675,355.863 192.074,355.863 192.074,355.863 190.875,355.863 189.677,355.863 189.677,355.863 189.677,355.863 187.277,355.863 186.015,355.863 184.814,355.863 183.617,355.863 182.416,355.863 181.218,355.863 181.218,355.863 180.017,355.863 180.017,355.863 178.818,355.863 177.556,355.863 176.355,355.863 175.158,355.863 175.158,355.863 172.757,355.863 170.357,355.863 170.357,355.863 169.158,355.863 167.896,355.863 166.695,355.863 166.695,355.863 165.496,355.863 165.496,355.863 164.298,355.863 164.298,355.863 161.898,355.863 160.699,355.863 159.5,355.863 159.5,355.863 158.3,355.863 157.038,355.863 155.839,355.863 155.839,355.863 155.839,355.863 155.839,357.062 154.638,357.062 153.438,357.062 153.438,357.062 152.239,357.062 152.239,357.062 149.841,357.062 148.578,357.062 146.179,357.062 146.179,357.062 146.179,357.062 146.179,357.062 144.979,357.062 143.78,357.062 142.58,357.062 142.58,357.062 140.181,357.062 137.721,357.062 134.121,357.062 132.923,357.062 130.521,357.062 130.521,357.062 129.324,357.062 129.324,357.062 129.324,357.062 129.324,357.062 129.324,357.062 128.06,357.062 126.861,357.062 124.462,357.062 123.263,357.062 119.664,357.062 117.202,357.062 117.202,357.062 117.202,357.062 114.804,357.062 114.804,357.062 113.604,357.062 112.404,357.062 108.742,357.062 108.742,357.062 107.544,357.062 106.343,357.062 103.944,357.062 103.944,357.062 101.546,357.062 99.083,357.062 96.685,355.863 96.685,355.863 96.685,355.863 96.685,355.863 96.685,355.863 95.485,355.863 95.485,355.863 95.485,355.863 94.285,355.863 93.087,355.863 91.887,355.863 91.887,355.863 90.688,355.863 89.425,355.863 89.425,355.863 88.224,355.863 85.825,355.863 85.825,355.863 84.625,355.863 83.427,355.863 83.427,355.863 83.427,355.863 82.228,355.863 82.228,355.863 81.028,355.863 79.765,355.863 79.765,355.863 78.565,355.863 76.167,355.863 76.167,355.863 73.767,355.863 73.767,355.863 71.306,355.863 71.306,355.863 70.105,355.863 70.105,355.863 68.906,355.863 68.906,355.863 67.707,355.863 65.308,355.863 62.909,355.863 62.909,355.863 61.646,355.863 60.447,355.863 60.447,355.863 58.048,355.863 58.048,355.863 55.649,355.863 54.45,355.863 54.45,355.863 53.25,355.863 49.588,355.863 48.388,355.863 48.388,355.863 47.188,355.863 45.989,355.863 44.79,355.863 42.328,355.863 39.929,355.863 38.729,355.863 37.53,355.863 37.53,355.863 36.33,355.863 35.131,355.863 33.931,355.863 32.732,355.863 32.732,355.863 31.47,355.863 27.871,354.664 27.871,354.664 27.871,351.002 27.871,349.803 27.871,349.803 27.871,348.604 27.871,348.604 27.871,345.006 27.871,343.742 27.871,340.145 27.871,337.746 27.871,337.746 27.871,334.146 27.871,332.885 27.871,332.885 27.871,329.287 27.871,329.287 27.871,328.086 27.871,328.086 27.871,328.086 27.871,326.887 27.871,326.887 27.871,325.688 27.871,325.688 27.871,325.688 27.871,325.688 27.871,324.424 27.871,324.424 27.871,324.424 27.871,323.225 27.871,323.225 29.071,318.428 29.071,313.566 29.071,311.166 29.071,309.967 29.071,309.967 29.071,309.967 29.071,309.967 29.071,308.768 29.071,308.768 29.071,308.768 29.071,307.568 29.071,307.568 29.071,307.568 29.071,307.568 29.071,306.369 29.071,306.369 29.071,305.17 29.071,305.17 29.071,305.17 29.071,305.17 29.071,303.908 29.071,303.908 29.071,302.707 29.071,302.707 29.071,301.508 29.071,299.109 29.071,297.91 29.071,297.91 29.071,297.91 29.071,297.91 29.071,296.709 29.071,295.447 29.071,295.447 29.071,294.248 29.071,293.049 29.071,293.049 29.071,288.25 29.071,288.25 29.071,284.588 29.071,283.389 29.071,283.389 29.071,280.99 30.271,279.791 30.271,279.791 30.271,278.592 30.271,278.592 30.271,278.592 30.271,278.592 30.271,277.393 30.271,277.393 30.271,272.531 30.271,272.531 30.271,271.332 30.271,271.332 30.271,268.932 30.271,267.732 30.271,267.732 30.271,264.072 30.271,264.072 30.271,262.871 30.271,262.871 30.271,262.871 30.271,261.672 30.271,260.473 30.271,259.273 30.271,259.273 30.271,256.873 30.271,256.873 30.271,255.611 30.271,254.412 30.271,254.412 30.271,253.213 30.271,252.014 30.271,250.812 30.271,249.615 30.271,249.615 30.271,248.414 30.271,248.414 30.271,248.414 30.271,248.414 30.271,248.414 30.271,248.414 30.271,248.414 30.271,247.152 30.271,247.152 30.271,247.152 30.271,247.152 30.271,247.152 30.271,247.152 30.271,247.152 29.071,245.953 29.071,245.953 29.071,245.953 29.071,245.953 29.071,244.752 29.071,244.752 29.071,244.752 27.871,244.752 27.871,243.553 27.871,243.553 26.672,243.553 26.672,243.553 26.672,243.553 25.472,243.553 25.472,242.354 25.472,242.354 24.271,242.354 24.271,242.354 23.074,242.354 23.074,242.354 23.074,241.154 23.074,241.154 23.074,241.154 21.81,241.154 21.81,241.154 21.81,241.154 20.611,241.154 20.611,241.154 20.611,241.154 20.611,241.154 20.611,241.154 20.611,241.154 20.611,241.154 20.611,241.154 20.611,241.154 20.611,241.154 19.411,239.955 19.411,238.756 19.411,238.756 19.411,238.756 19.411,238.756 19.411,237.557 18.212,237.557 18.212,237.557 18.212,237.557 18.212,237.557 18.212,236.293 18.212,236.293 18.212,235.094 18.212,235.094 17.013,233.895 17.013,233.895 17.013,232.695 17.013,232.695 15.812,232.695 14.613,231.496 14.613,230.295 14.613,230.295 14.613,230.295 14.613,230.295 14.613,230.295 14.613,230.295 14.613,229.096 14.613,229.096 14.613,229.096 14.613,227.834 14.613,227.834 14.613,227.834 14.613,227.834 15.812,226.635 15.812,226.635 15.812,226.635 17.013,226.635 17.013,226.635 17.013,225.436 17.013,225.436 18.212,225.436 18.212,225.436 18.212,224.234 19.411,224.234 20.611,223.035 21.81,223.035 21.81,223.035 21.81,221.836 23.074,221.836 23.074,221.836 23.074,221.836 23.074,220.637 23.074,220.637 23.074,220.637 23.074,220.637 23.074,220.637 24.271,220.637 24.271,219.438 24.271,219.438 24.271,219.438 24.271,219.438 24.271,219.438 24.271,219.438 24.271,219.438 24.271,218.174 25.472,218.174 25.472,218.174 25.472,218.174 25.472,218.174 25.472,216.975 25.472,216.975 25.472,216.975 26.672,216.975 26.672,216.975 26.672,216.975 26.672,215.775 26.672,215.775 26.672,215.775 26.672,214.576 26.672,214.576 26.672,214.576 26.672,214.576 26.672,214.576 26.672,213.377 26.672,213.377 26.672,213.377 26.672,213.377 26.672,212.178 26.672,212.178 26.672,212.178 26.672,212.178 26.672,212.178 26.672,212.178 26.672,212.178 26.672,212.178 26.672,212.178 26.672,210.977 26.672,210.977 26.672,210.977 26.672,210.977 26.672,210.977 26.672,209.779 26.672,209.779 26.672,209.779 26.672,208.578 26.672,208.578 26.672,207.316 26.672,207.316 26.672,206.117 26.672,206.117 26.672,206.117 26.672,206.117 26.672,204.916 26.672,204.916 26.672,204.916 26.672,204.916 26.672,204.916 26.672,204.916 26.672,203.717 27.871,203.717 27.871,203.717 27.871,203.717 27.871,202.518 27.871,202.518 27.871,202.518 27.871,202.518 27.871,202.518 27.871,201.318 27.871,201.318 27.871,201.318 27.871,201.318 27.871,201.318 27.871,201.318 27.871,200.119 27.871,200.119 26.672,200.119 26.672,200.119 27.871,200.119 27.871,200.119 26.672,200.119 26.672,198.855 26.672,198.855 26.672,198.855 26.672,198.855 26.672,197.658 26.672,197.658 26.672,197.658 26.672,197.658 26.672,197.658 26.672,197.658 26.672,196.457 26.672,196.457 26.672,196.457 26.672,196.457 26.672,196.457 26.672,196.457 26.672,196.457 26.672,196.457 26.672,196.457 26.672,196.457 26.672,195.258 26.672,195.258 26.672,195.258 26.672,195.258 26.672,195.258 26.672,195.258 26.672,195.258 26.672,195.258 26.672,194.059 26.672,194.059 26.672,194.059 26.672,192.859 26.672,192.859 26.672,192.859 25.472,192.859 25.472,192.859 26.672,192.859 26.672,191.66 26.672,191.66 26.672,191.66 26.672,191.66 26.672,191.66 26.672,191.66 26.672,191.66 26.672,191.66 26.672,191.66 26.672,191.66 25.472,191.66 26.672,191.66 26.672,190.459 26.672,190.459 26.672,190.459 26.672,190.459 26.672,190.459 26.672,190.459 26.672,190.459 26.672,190.459 26.672,189.26 26.672,189.26 26.672,189.26 26.672,189.26 26.672,189.26 26.672,189.26 26.672,189.26 26.672,189.26 26.672,189.26 25.472,189.26 26.672,187.998 26.672,187.998 26.672,187.998 26.672,187.998 26.672,186.799 26.672,186.799 26.672,186.799 25.472,186.799 25.472,186.799 25.472,186.799 25.472,186.799 25.472,185.6 25.472,185.6 25.472,185.6 25.472,185.6 24.271,185.6 24.271,185.6 24.271,185.6 24.271,185.6 24.271,185.6 24.271,185.6 24.271,184.398 24.271,184.398 24.271,184.398 24.271,184.398 23.074,184.398 23.074,184.398 23.074,184.398 23.074,183.201 23.074,183.201 23.074,182 23.074,182 23.074,182 23.074,182 23.074,182 23.074,182 23.074,182 21.81,182 21.81,182 21.81,182 21.81,182 21.81,182 21.81,182 21.81,182 21.81,180.801 21.81,180.801 21.81,180.801 21.81,180.801 21.81,180.801 21.81,180.801 21.81,180.801 21.81,180.801 21.81,180.801 21.81,180.801 21.81,180.801 21.81,179.602 21.81,179.602 21.81,179.602 21.81,179.602 21.81,179.602 21.81,179.602 21.81,179.602 21.81,179.602 21.81,178.338 21.81,178.338 21.81,178.338 21.81,178.338 20.611,178.338 20.611,178.338 20.611,178.338 20.611,178.338 20.611,178.338 20.611,178.338 20.611,177.14 20.611,177.14 20.611,177.14 20.611,177.14 20.611,177.14 20.611,177.14 20.611,177.14 20.611,177.14 20.611,175.939 20.611,175.939 20.611,175.939 20.611,175.939 20.611,174.74 20.611,174.74 20.611,174.74 20.611,174.74 20.611,174.74 20.611,174.74 20.611,174.74 20.611,174.74 20.611,174.74 20.611,174.74 20.611,173.541 20.611,173.541 20.611,173.541 20.611,173.541 20.611,173.541 20.611,173.541 20.611,173.541 20.611,173.541 20.611,173.541 20.611,172.342 20.611,172.342 20.611,172.342 20.611,172.342 20.611,172.342 20.611,172.342 20.611,172.342 20.611,172.342 20.611,171.142 19.411,171.142 19.411,171.142 19.411,171.142 19.411,171.142 19.411,171.142 19.411,171.142 19.411,171.142 19.411,171.142 19.411,171.142 19.411,169.942 19.411,169.942 19.411,169.942 19.411,169.942 19.411,169.942 19.411,169.942 19.411,169.942 19.411,169.942 19.411,169.942 19.411,169.942 19.411,169.942 19.411,168.68 19.411,168.68 19.411,168.68 19.411,168.68 19.411,168.68 19.411,168.68 19.411,168.68 19.411,167.48 18.212,167.48 18.212,167.48 18.212,167.48 18.212,167.48 18.212,166.281 19.411,166.281 19.411,166.281 19.411,166.281 19.411,166.281 19.411,166.281 19.411,166.281 19.411,166.281 19.411,166.281 19.411,166.281 19.411,165.082 19.411,165.082 19.411,165.082 19.411,165.082 19.411,165.082 19.411,165.082 19.411,165.082 19.411,163.882 19.411,163.882 19.411,163.882 19.411,163.882 19.411,163.882 19.411,163.882 19.411,162.683 19.411,162.683 19.411,162.683 19.411,162.683 19.411,162.683 19.411,162.683 19.411,162.683 19.411,162.683 19.411,161.482 19.411,161.482 19.411,161.482 19.411,161.482 19.411,161.482 19.411,161.482 19.411,161.482 19.411,161.482 19.411,161.482 19.411,161.482 19.411,161.482 19.411,161.482 19.411,160.221 19.411,160.221 19.411,160.221 19.411,160.221 19.411,160.221 19.411,160.221 19.411,160.221 19.411,160.221 19.411,160.221 19.411,160.221 19.411,159.021 19.411,159.021 19.411,159.021 19.411,159.021 19.411,159.021 19.411,159.021 19.411,159.021 18.212,159.021 18.212,157.822 18.212,157.822 19.411,157.822 19.411,157.822 19.411,157.822 19.411,157.822 19.411,157.822 19.411,157.822 19.411,157.822 19.411,156.621 19.411,156.621 19.411,156.621 19.411,156.621 19.411,156.621 19.411,156.621 19.411,156.621 19.411,156.621 19.411,156.621 19.411,156.621 19.411,156.621 19.411,155.423 19.411,155.423 19.411,155.423 19.411,155.423 19.411,155.423 19.411,155.423 19.411,155.423 19.411,155.423 19.411,155.423 19.411,155.423 19.411,155.423 19.411,154.223 19.411,154.223 19.411,154.223 19.411,154.223 19.411,154.223 19.411,154.223 20.611,154.223 20.611,154.223 20.611,154.223 20.611,154.223 20.611,154.223 20.611,154.223 20.611,154.223 20.611,154.223 19.411,153.023 20.611,153.023 20.611,153.023 20.611,153.023 20.611,153.023 20.611,153.023 20.611,153.023 20.611,151.824 20.611,151.824 20.611,151.824 20.611,151.824 20.611,151.824 20.611,151.824 20.611,151.824 20.611,151.824 20.611,151.824 20.611,151.824 20.611,151.824 20.611,150.561 20.611,151.824 19.411,151.824 19.411,151.824 19.411,151.824 19.411,151.824 19.411,151.824 19.411,151.824 19.411,150.561 19.411,150.561 19.411,150.561 19.411,150.561 19.411,150.561 19.411,150.561 19.411,150.561 19.411,150.561 19.411,149.361 19.411,149.361 19.411,149.361 19.411,149.361 19.411,149.361 18.212,149.361 18.212,149.361 18.212,149.361 18.212,148.162 18.212,148.162 18.212,146.963 18.212,146.963 18.212,146.963 18.212,146.963 18.212,146.963 18.212,146.963 18.212,146.963 18.212,146.963 18.212,146.963 18.212,145.764 18.212,145.764 18.212,145.764 18.212,145.764 18.212,145.764 18.212,145.764 18.212,145.764 18.212,145.764 18.212,145.764 18.212,144.563 18.212,144.563 18.212,144.563 18.212,144.563 18.212,144.563 18.212,144.563 18.212,143.365 18.212,143.365 18.212,143.365 18.212,143.365 18.212,143.365 18.212,143.365 18.212,143.365 18.212,143.365 18.212,143.365 18.212,142.164 18.212,142.164 18.212,142.164 18.212,142.164 18.212,142.164 18.212,142.164 18.212,142.164 18.212,142.164 18.212,142.164 18.212,142.164 18.212,140.966 18.212,140.966 18.212,140.966 18.212,140.966 18.212,140.966 18.212,140.966 18.212,140.966 18.212,140.966 18.212,139.703 18.212,139.703 18.212,139.703 18.212,139.703 18.212,139.703 18.212,139.703 18.212,139.703 18.212,139.703 18.212,139.703 18.212,138.502 18.212,138.502 18.212,138.502 18.212,138.502 18.212,138.502 18.212,138.502 18.212,138.502 18.212,138.502 18.212,138.502 18.212,137.304 18.212,137.304 18.212,137.304 18.212,137.304 18.212,137.304 18.212,137.304 18.212,137.304 18.212,137.304 18.212,137.304 18.212,137.304 18.212,137.304 18.212,136.104 18.212,136.104 18.212,136.104 18.212,136.104 18.212,136.104 18.212,136.104 18.212,136.104 18.212,136.104 18.212,136.104 18.212,136.104 18.212,136.104 18.212,134.904 18.212,134.904 18.212,134.904 18.212,134.904 18.212,134.904 18.212,134.904 18.212,134.904 18.212,134.904 18.212,134.904 18.212,134.904 18.212,133.705 18.212,133.705 18.212,133.705 18.212,133.705 18.212,133.705 18.212,133.705 18.212,133.705 18.212,133.705 18.212,133.705 18.212,132.506 18.212,132.506 18.212,132.506 18.212,132.506 18.212,132.506 18.212,132.506 18.212,132.506 18.212,132.506 18.212,132.506 18.212,132.506 18.212,132.506 18.212,132.506 18.212,131.307 18.212,131.307 18.212,131.307 18.212,131.307 18.212,131.307 18.212,131.307 18.212,131.307 18.212,131.307 18.212,131.307 18.212,131.307 18.212,130.043 18.212,130.043 18.212,130.043 18.212,130.043 18.212,128.844 18.212,128.844 18.212,128.844 18.212,128.844 18.212,128.844 18.212,128.844 18.212,128.844 18.212,128.844 18.212,128.844 18.212,127.645 18.212,127.645 18.212,127.645 18.212,127.645 18.212,127.645 18.212,127.645 18.212,127.645 18.212,127.645 18.212,127.645 18.212,126.444 18.212,126.444 18.212,126.444 18.212,126.444 18.212,126.444 18.212,126.444 18.212,126.444 18.212,126.444 18.212,125.246 18.212,125.246 18.212,125.246 18.212,125.246 18.212,125.246 18.212,125.246 18.212,125.246 18.212,125.246 18.212,125.246 18.212,125.246 18.212,125.246 18.212,125.246 18.212,124.045 18.212,124.045 18.212,124.045 18.212,124.045 18.212,124.045 18.212,124.045 18.212,124.045 18.212,122.847 18.212,122.847 18.212,122.847 18.212,122.847 18.212,122.847 18.212,122.847 17.013,122.847 17.013,122.847 17.013,122.847 17.013,121.584 17.013,121.584 18.212,121.584 18.212,121.584 18.212,121.584 18.212,121.584 18.212,121.584 18.212,121.584 18.212,121.584 18.212,121.584 18.212,120.385 18.212,120.385 18.212,120.385 18.212,120.385 18.212,120.385 18.212,120.385 18.212,120.385 18.212,120.385 18.212,120.385 18.212,119.185 18.212,119.185 18.212,119.185 18.212,119.185 18.212,119.185 18.212,119.185 18.212,119.185 18.212,119.185 18.212,119.185 18.212,117.985 18.212,117.985 18.212,117.985 18.212,117.985 18.212,117.985 18.212,117.985 18.212,117.985 18.212,117.985 18.212,117.985 18.212,117.985 18.212,116.787 18.212,116.787 18.212,116.787 18.212,116.787 18.212,116.787 18.212,116.787 18.212,116.787 18.212,116.787 18.212,116.787 18.212,116.787 18.212,116.787 18.212,115.586 17.013,115.586 18.212,115.586 18.212,115.586 18.212,115.586 18.212,115.586 18.212,115.586 18.212,114.387 18.212,114.387 18.212,114.387 18.212,114.387 18.212,114.387 18.212,114.387 18.212,114.387 18.212,114.387 18.212,114.387 18.212,114.387 18.212,114.387 18.212,113.188 18.212,113.188 18.212,113.188 18.212,113.188 18.212,113.188 18.212,113.188 18.212,113.188 18.212,113.188 18.212,113.188 18.212,113.188 18.212,113.188 18.212,111.925 18.212,111.925 18.212,111.925 18.212,111.925 18.212,111.925 18.212,111.925 18.212,111.925 18.212,111.925 18.212,111.925 18.212,111.925 18.212,110.726 18.212,110.726 18.212,110.726 18.212,110.726 18.212,110.726 17.013,110.726 17.013,110.726 17.013,110.726 18.212,110.726 17.013,110.726 17.013,110.726 17.013,110.726 17.013,109.525 17.013,109.525 17.013,109.525 17.013,109.525 17.013,109.525 17.013,109.525 17.013,108.326 17.013,108.326 17.013,108.326 17.013,108.326 17.013,108.326 17.013,108.326 17.013,108.326 17.013,107.127 17.013,107.127 17.013,107.127 17.013,107.127 17.013,107.127 17.013,107.127 17.013,107.127 17.013,107.127 17.013,105.928 17.013,105.928 17.013,105.928 15.812,105.928 15.812,105.928 15.812,105.928 15.812,105.928 15.812,105.928 15.812,105.928 15.812,105.928 15.812,105.928 15.812,105.928 15.812,105.928 15.812,104.728 15.812,104.728 15.812,104.728 15.812,104.728 15.812,104.728 15.812,104.728 15.812,104.728 15.812,104.728 15.812,104.728 15.812,104.728 15.812,104.728 15.812,103.529 15.812,103.529 15.812,103.529 15.812,103.529 15.812,103.529 15.812,103.529 15.812,103.529 15.812,102.266 15.812,102.266 15.812,102.266 15.812,102.266 15.812,102.266 15.812,102.266 15.812,102.266 14.613,102.266 14.613,102.266 14.613,101.066 14.613,101.066 14.613,101.066 14.613,101.066 14.613,101.066 14.613,101.066 14.613,101.066 14.613,99.866 14.613,99.866 14.613,99.866 14.613,99.866 14.613,99.866 14.613,99.866 14.613,99.866 14.613,99.866 14.613,99.866 13.351,99.866 13.351,99.866 13.351,99.866 13.351,98.666 13.351,98.666 13.351,98.666 13.351,98.666 13.351,98.666 13.351,98.666 13.351,98.666 13.351,98.666 13.351,98.666 13.351,97.468 13.351,97.468 13.351,97.468 13.351,97.468 13.351,97.468 13.351,97.468 13.351,97.468 13.351,97.468 13.351,96.268 13.351,96.268 13.351,96.268 13.351,96.268 13.351,96.268 13.351,96.268 13.351,96.268 12.151,96.268 12.151,95.068 12.151,95.068 13.351,95.068 13.351,95.068 12.151,95.068 12.151,95.068 12.151,95.068 12.151,95.068 12.151,95.068 12.151,95.068 12.151,95.068 12.151,95.068 12.151,95.068 12.151,93.869 12.151,93.869 12.151,93.869 12.151,93.869 12.151,93.869 12.151,93.869 12.151,93.869 12.151,93.869 12.151,92.606 12.151,92.606 12.151,92.606 12.151,92.606 12.151,92.606 12.151,92.606 12.151,92.606 12.151,92.606 12.151,92.606 12.151,92.606 12.151,92.606 12.151,92.606 12.151,92.606 12.151,92.606 12.151,92.606 12.151,91.407 12.151,91.407 10.952,91.407 10.952,91.407 10.952,91.407 10.952,91.407 10.952,91.407 10.952,91.407 10.952,91.407 10.952,90.207 10.952,90.207 10.952,90.207 10.952,90.207 10.952,90.207 10.952,90.207 10.952,90.207 10.952,90.207 10.952,90.207 10.952,89.009 10.952,89.009 10.952,89.009 10.952,89.009 10.952,89.009 10.952,87.809 10.952,87.809 10.952,87.809 10.952,87.809 10.952,87.809 10.952,87.809 10.952,87.809 10.952,86.608 10.952,86.608 10.952,86.608 10.952,86.608 10.952,86.608 10.952,86.608 9.752,86.608 9.752,86.608 10.952,86.608 10.952,85.409 10.952,85.409 10.952,85.409 10.952,84.209 10.952,84.209 10.952,84.209 9.752,84.209 9.752,84.209 9.752,84.209 9.752,84.209 9.752,84.209 9.752,84.209 9.752,84.209 9.752,84.209 9.752,83.011 9.752,83.011 8.554,83.011 8.554,83.011 9.752,83.011 9.752,83.011 9.752,81.747 9.752,81.747 8.554,81.747 8.554,81.747 9.752,81.747 9.752,81.747 9.752,81.747 8.554,81.747 8.554,81.747 8.554,80.549 8.554,80.549 8.554,80.549 8.554,80.549 8.554,80.549 8.554,80.549 8.554,80.549 8.554,80.549 8.554,80.549 8.554,80.549 8.554,79.35 8.554,79.35 8.554,79.35 8.554,79.35 8.554,79.35 8.554,79.35 7.354,79.35 7.354,79.35 7.354,78.149 7.354,78.149 7.354,78.149 7.354,78.149 7.354,78.149 7.354,78.149 7.354,78.149 7.354,78.149 7.354,76.95 7.354,76.95 7.354,76.95 7.354,76.95 7.354,76.95 7.354,76.95 7.354,76.95 7.354,76.95 7.354,76.95 7.354,75.75 7.354,75.75 8.554,75.75 8.554,75.75 8.554,75.75 8.554,75.75 8.554,74.551 8.554,74.551 8.554,74.551 8.554,74.551 8.554,74.551 8.554,74.551 8.554,74.551 8.554,74.551 8.554,74.551 8.554,73.352 8.554,73.352 8.554,73.352 8.554,73.352 8.554,73.352 8.554,73.352 8.554,73.352 8.554,73.352 8.554,73.352 8.554,73.352 8.554,72.089 8.554,72.089 8.554,72.089 8.554,72.089 8.554,72.089 8.554,72.089 8.554,72.089 8.554,72.089 8.554,72.089 8.554,70.89 8.554,70.89 8.554,70.89 8.554,70.89 8.554,70.89 8.554,70.89 8.554,70.89 8.554,69.689 8.554,69.689 8.554,69.689 8.554,69.689 8.554,69.689 8.554,69.689 8.554,69.689 8.554,69.689 8.554,69.689 8.554,69.689 8.554,69.689 8.554,69.689 8.554,69.689 8.554,68.49 8.554,68.49 8.554,68.49 8.554,68.49 8.554,68.49 8.554,68.49 8.554,68.49 8.554,68.49 8.554,68.49 8.554,68.49 8.554,68.49 8.554,68.49 8.554,67.29 8.554,67.29 8.554,67.29 8.554,67.29 8.554,67.29 8.554,67.29 8.554,67.29 8.554,67.29 8.554,66.092 8.554,66.092 8.554,66.092 8.554,66.092 8.554,66.092 8.554,66.092 8.554,66.092 8.554,64.892 8.554,64.892 8.554,64.892 8.554,64.892 8.554,64.892 8.554,64.892 8.554,64.892 8.554,64.892 8.554,64.892 8.554,64.892 8.554,63.63 8.554,63.63 8.554,63.63 8.554,63.63 8.554,63.63 8.554,63.63 8.554,63.63 8.554,62.43 8.554,62.43 8.554,62.43 8.554,62.43 8.554,62.43 8.554,62.43 8.554,62.43 8.554,62.43 8.554,62.43 8.554,62.43 8.554,61.23 8.554,61.23 8.554,61.23 8.554,61.23 8.554,61.23 8.554,61.23 8.554,61.23 8.554,61.23 8.554,60.03 8.554,60.03 8.554,60.03 8.554,60.03 8.554,60.03 8.554,60.03 8.554,60.03 8.554,60.03 8.554,58.83 8.554,58.83 8.554,58.83 8.554,58.83 8.554,58.83 8.554,58.83 8.554,58.83 8.554,58.83 8.554,57.632 8.554,57.632 8.554,57.632 8.554,57.632 8.554,57.632 8.554,57.632 8.554,56.433 8.554,56.433 8.554,56.433 8.554,56.433 8.554,55.232 8.554,55.232 8.554,55.232 8.554,55.232 7.354,55.232 7.354,55.232 7.354,55.232 7.354,55.232 7.354,55.232 7.354,55.232 8.554,54.033 8.554,54.033 8.554,54.033 8.554,54.033 8.554,54.033 8.554,54.033 8.554,54.033 8.554,54.033 8.554,54.033 8.554,54.033 8.554,54.033 8.554,54.033 8.554,52.771 8.554,52.771 8.554,52.771 8.554,52.771 8.554,52.771 8.554,51.571 8.554,51.571 8.554,51.571 8.554,51.571 8.554,51.571 8.554,51.571 8.554,51.571 8.554,50.371 8.554,50.371 9.752,50.371 9.752,50.371 9.752,50.371 9.752,50.371 9.752,50.371 9.752,50.371 9.752,50.371 9.752,50.371 9.752,50.371 9.752,50.371 9.752,50.371 9.752,50.371 9.752,50.371 9.752,50.371 9.752,50.371 9.752,50.371 9.752,49.173 9.752,49.173 9.752,49.173 9.752,49.173 9.752,49.173 9.752,49.173 10.952,47.973 10.952,47.973 10.952,47.973 10.952,47.973 10.952,47.973 10.952,47.973 10.952,47.973 10.952,47.973 10.952,46.773 10.952,46.773 10.952,46.773 10.952,46.773 10.952,46.773 10.952,46.773 10.952,46.773 9.752,46.773 9.752,45.573 9.752,45.573 9.752,45.573 9.752,45.573 9.752,45.573 9.752,44.311 9.752,44.311 9.752,44.311 9.752,44.311 9.752,44.311 9.752,44.311 9.752,44.311 9.752,44.311 9.752,43.111 9.752,43.111 9.752,43.111 8.554,43.111 8.554,43.111 8.554,41.912 8.554,41.912 8.554,41.912 8.554,41.912 8.554,41.912 8.554,41.912 8.554,41.912 8.554,40.713 8.554,40.713 8.554,40.713 8.554,40.713 8.554,40.713 8.554,40.713 8.554,40.713 8.554,40.713 8.554,40.713 8.554,40.713 8.554,40.713 8.554,39.514 8.554,39.514 8.554,39.514 8.554,39.514 8.554,39.514 8.554,39.514 8.554,39.514 8.554,39.514 8.554,39.514 7.354,39.514 7.354,39.514 7.354,38.313 7.354,38.313 7.354,38.313 7.354,38.313 7.354,38.313 7.354,38.313 7.354,38.313 7.354,37.114 8.554,37.114 8.554,37.114 8.554,37.114 8.554,37.114 7.354,37.114 7.354,37.114 7.354,37.114 8.554,37.114 8.554,37.114 7.354,35.914 7.354,35.914 7.354,35.914 7.354,35.914 7.354,35.914 7.354,35.914 7.354,35.914 7.354,35.914 7.354,35.914 7.354,34.716 7.354,34.716 7.354,34.716 7.354,34.716 7.354,34.716 7.354,34.716 7.354,34.716 7.354,34.716 7.354,33.452 7.354,33.452 7.354,33.452 7.354,33.452 6.154,33.452 7.354,33.452 7.354,32.253 6.154,32.253 6.154,32.253 6.154,32.253 6.154,32.253 6.154,32.253 6.154,32.253 6.154,32.253 6.154,32.253 6.154,32.253 6.154,31.054 6.154,31.054 6.154,31.054 6.154,31.054 6.154,31.054 6.154,29.854 6.154,29.854 6.154,29.854 6.154,29.854 6.154,29.854 6.154,29.854 6.154,29.854 6.154,29.854 6.154,29.854 6.154,28.654 6.154,28.654 6.154,28.654 6.154,28.654 6.154,28.654 6.154,28.654 6.154,28.654 6.154,28.654 "></polygon> </svg> 